<svg width="60" height="60" viewBox="0 0 60 60" fill="none" xmlns="http://www.w3.org/2000/svg">
    <path d="M4.071 9.872h52.812v15.534a24.205 24.205 0 0 1-24.206 24.205h-4.4A24.205 24.205 0 0 1 4.07 25.406V9.872z" fill="#F0BF91"/>
    <path d="M56.66 28.696a24.22 24.22 0 0 1-18.566 20.303v-1.214a19.092 19.092 0 0 1 18.566-19.09zM4.293 28.696A24.219 24.219 0 0 0 22.86 48.999v-1.214a19.092 19.092 0 0 0-18.567-19.09z" fill="#F5E8C5"/>
    <path d="M44.407 15.67h14.676v9.95H44.407a4.975 4.975 0 0 1 0-9.95zM16.547 25.62H1.87v-9.95h14.676a4.975 4.975 0 1 1 0 9.95z" fill="#fff"/>
    <path d="M20.069 36.254a.87.87 0 1 0-1.422 1.006c.387.546.743 1.112 1.067 1.696a.87.87 0 1 0 1.523-.846c-.355-.64-.745-1.26-1.168-1.856z" fill="#413B38"/>
    <path d="M59.083 18.918a.871.871 0 0 0 .87-.871v-2.378a.871.871 0 0 0-.87-.87h-1.329V9.87a.871.871 0 0 0-.87-.871H4.07a.871.871 0 0 0-.871.87v4.93H1.87a.871.871 0 0 0-.871.871v9.95a.87.87 0 0 0 .87.871h1.363a25.14 25.14 0 0 0 25.045 23.99h4.398a25.14 25.14 0 0 0 25.044-23.99h1.363a.87.87 0 0 0 .87-.87v-3.483a.87.87 0 1 0-1.74 0v2.612H44.406a4.104 4.104 0 1 1 0-8.209h13.805v1.507a.87.87 0 0 0 .87.869zM2.74 16.542h13.806a4.104 4.104 0 0 1 0 8.209H2.74v-8.209zm36.223 31.327v-.084a18.113 18.113 0 0 1 16.655-18.159 23.452 23.452 0 0 1-16.655 18.24v.003zm-.403-27.223a5.852 5.852 0 0 0 5.846 5.846h11.572c-.022.462-.053.92-.1 1.374a19.846 19.846 0 0 0-18.656 19.919v.505c-1.498.298-3.02.448-4.547.447h-4.398c-1.527.001-3.05-.149-4.547-.447v-.505a19.934 19.934 0 0 0-1.09-6.525.87.87 0 0 0-1.647.568c.662 1.916.998 3.93.995 5.957v.082A23.453 23.453 0 0 1 5.335 29.633a18.122 18.122 0 0 1 11.328 5.273.869.869 0 0 0 1.42-.281.87.87 0 0 0-.188-.949 19.86 19.86 0 0 0-12.82-5.812c-.05-.454-.08-.913-.1-1.374h11.572a5.846 5.846 0 0 0 0-11.691H4.94V10.74h3.771v2.116a.87.87 0 0 0 1.741 0V10.74h4.23v2.116a.87.87 0 0 0 1.74 0V10.74h4.23v2.116a.87.87 0 1 0 1.74 0V10.74h4.23v2.116a.87.87 0 1 0 1.74 0V10.74h4.229v2.116a.87.87 0 1 0 1.741 0V10.74h4.229v2.116a.87.87 0 1 0 1.741 0V10.74h4.229v2.116a.87.87 0 1 0 1.741 0V10.74h4.229v2.116a.87.87 0 1 0 1.741 0V10.74h3.771v4.06H44.407a5.852 5.852 0 0 0-5.846 5.843v.002z" fill="#413B38"/>
    <path d="M42.44 20.644a2.363 2.363 0 1 0 4.727.004 2.363 2.363 0 0 0-4.727-.004zm2.985 0a.621.621 0 1 1-1.243.005.621.621 0 0 1 1.243-.005zM19.407 20.644a2.363 2.363 0 1 0-4.726.005 2.363 2.363 0 0 0 4.726-.005zm-2.985 0a.622.622 0 1 1 1.244.004.622.622 0 0 1-1.244-.004zM49.519 38.332a.87.87 0 0 0-1.226.11 20.64 20.64 0 0 1-2.417 2.442.87.87 0 1 0 1.13 1.324 22.344 22.344 0 0 0 2.622-2.65.87.87 0 0 0-.11-1.226z" fill="#413B38"/>
</svg>
