<svg width="60" height="60" viewBox="0 0 60 60" fill="none" xmlns="http://www.w3.org/2000/svg">
    <path d="M29.631 58.005a13.246 13.246 0 0 1-13.205-12.088 130.777 130.777 0 0 1-.466-11.251c0-15.037 2.338-23.34 2.338-23.34h22.668s2.337 8.303 2.337 23.34c0 4.317-.192 8.08-.468 11.25a13.246 13.246 0 0 1-13.204 12.09z" fill="#DBFFD6"/>
    <path d="M40.959 14.867a2.464 2.464 0 1 0 0-4.927 2.464 2.464 0 0 0 0 4.928zM18.303 14.867a2.464 2.464 0 1 0 0-4.927 2.464 2.464 0 0 0 0 4.928z" fill="#E8B5AD"/>
    <path d="M29.63 24.636c6.02 0 10.9-4.88 10.9-10.898 0-6.02-4.88-10.899-10.9-10.899-6.018 0-10.898 4.88-10.898 10.899 0 6.019 4.88 10.898 10.899 10.898z" fill="#FFE6DE"/>
    <path d="M23.17 51.8a.84.84 0 1 0-1.134 1.239 11.13 11.13 0 0 0 2.695 1.822.838.838 0 0 0 .99-1.316.839.839 0 0 0-.263-.197A9.457 9.457 0 0 1 23.17 51.8z" fill="#413B38"/>
    <path d="M44.262 12.405a3.276 3.276 0 0 0-3.829-3.259 11.737 11.737 0 0 0-21.604 0A3.276 3.276 0 0 0 15 12.405a3.28 3.28 0 0 0 1.619 2.83 114.526 114.526 0 0 0-1.499 19.433c0 3.909.158 7.718.469 11.32A14.106 14.106 0 0 0 33.8 58.219a.838.838 0 0 0 .144-1.545.837.837 0 0 0-.64-.06 12.429 12.429 0 0 1-16.043-10.769c0-.014 0-.029-.003-.043 5.234 3.156 16.714 6.965 20.635 8.22-.478.426-.988.814-1.525 1.162a.84.84 0 1 0 .912 1.41 13.985 13.985 0 0 0 6.394-10.604c.31-3.603.468-7.412.468-11.321.054-6.509-.448-13.01-1.498-19.434a3.28 3.28 0 0 0 1.618-2.83zm-1.679 0a1.62 1.62 0 0 1-1.139 1.548c-.026.008-.057.013-.085.02 0-.078.01-.156.01-.235 0-.998-.126-1.991-.377-2.956a1.626 1.626 0 0 1 1.591 1.623zM29.135 3.703a1.82 1.82 0 0 1 1.573 1.796 1.29 1.29 0 0 1-1.29 1.29.863.863 0 0 1-.863-.864.84.84 0 1 0-1.68 0 2.545 2.545 0 0 0 2.543 2.543 2.974 2.974 0 0 0 2.969-2.969 3.458 3.458 0 0 0-.362-1.521 10.057 10.057 0 0 1 7.056 13.21.84.84 0 0 0 1.578.576c.184-.514.331-1.04.441-1.575.326 1.976.657 4.467.912 7.46-2.067 2.235-5.067 4.17-8.938 5.752-1.02.418-2.1.805-3.206 1.16-4.714-1.515-9.573-3.841-12.579-7.376.248-2.778.561-5.106.868-6.975a11.74 11.74 0 0 0 17.33 7.702.84.84 0 1 0-.838-1.453 10.057 10.057 0 0 1-14.935-10.374 10.055 10.055 0 0 1 9.42-8.382zM17.11 25.43c7.435 7.282 21.812 9.097 25.35 9.44a132.52 132.52 0 0 1-.287 8.634c-3.77-.531-18.779-3.02-25.37-9.739.019-3.073.133-5.86.307-8.335zm15.53 5.94c.363-.134.72-.272 1.068-.415a28.216 28.216 0 0 0 8.47-5.116c.147 2.214.248 4.66.276 7.34a67.82 67.82 0 0 1-9.813-1.808zm-14.37-20.588a11.713 11.713 0 0 0-.378 2.956c0 .078.005.156.006.234-.03-.007-.06-.013-.088-.022a1.623 1.623 0 0 1 .46-3.166v-.002zm20.928 41.893c-2.948-.933-17.627-5.677-22.098-8.981a132.444 132.444 0 0 1-.288-7.648c7.531 6.401 21.68 8.66 25.237 9.138-.017.22-.03.443-.048.66a12.302 12.302 0 0 1-2.803 6.83z" fill="#413B38"/>
    <path d="M36.832 21.962a.84.84 0 0 0 1.187-.013c.42-.43.806-.89 1.156-1.377a.84.84 0 1 0-1.364-.979c-.3.419-.632.814-.992 1.182a.84.84 0 0 0 .013 1.187zM27.038 18.378a.84.84 0 1 0-1.61.48c.582 1.95 2.53 2.822 4.203 2.822 1.673 0 3.621-.872 4.203-2.822a.84.84 0 0 0-1.61-.48C31.89 19.498 30.681 20 29.631 20s-2.26-.502-2.593-1.623zM31.934 13.495a.84.84 0 0 0 1.145-.312 1.09 1.09 0 0 1 1.939 0 .84.84 0 0 0 1.458-.833 2.769 2.769 0 0 0-4.855 0 .84.84 0 0 0 .313 1.145zM23.099 13.495a.84.84 0 0 0 1.145-.312 1.09 1.09 0 0 1 1.939 0 .84.84 0 0 0 1.457-.833 2.768 2.768 0 0 0-4.854 0 .84.84 0 0 0 .313 1.145z" fill="#413B38"/>
</svg>
