<svg width="546" height="577" viewBox="0 0 546 577" fill="none" xmlns="http://www.w3.org/2000/svg">
   <style>
   ellipse:hover {
    fill: #fea883;
    transition: 500ms;
}
   </style>
<g opacity="0.7" filter="url(#filter0_d_2_229)">
<ellipse cx="276.884" cy="271.203" rx="173.913" ry="173.449" fill="#FFEF63"/>
</g>
<g opacity="0.6" filter="url(#filter1_d_2_229)">
<path d="M522.999 270.739C522.999 406.146 412.817 515.928 276.884 515.928C140.95 515.928 30.7676 406.146 30.7676 270.739C30.7676 135.332 140.95 25.5508 276.884 25.5508C412.817 25.5508 522.999 135.332 522.999 270.739Z" stroke="#FE6E31" stroke-width="4"/>
</g>
<circle cx="277.348" cy="271.203" r="135.42" fill="white"/>
<g filter="url(#filter2_d_2_229)">
<circle cx="55.6666" cy="385.29" r="39.8841" fill="#FFEF63"/>
<circle cx="55.6666" cy="385.29" r="37.3841" stroke="white" stroke-width="5"/>
</g>
<g filter="url(#filter3_d_2_229)">

<animateTransform attributeName="transform"
                          attributeType="XML"
                          type="rotate"
                           from="0 273 278"
                          to="-360 273 278"
                          dur="20s"
                          repeatCount="indefinite"/>

<circle cx="123.84" cy="292.073" r="40.3478" fill="#FFEF63"/>
<circle cx="123.84" cy="292.073" r="37.8478" stroke="white" stroke-width="5"/>

<g clip-path="url(#clip4_2_229)">
<path d="M115.036 303.532C114.563 303.532 114.123 303.289 113.872 302.887L105.077 288.839C103.996 287.113 104.126 284.887 105.4 283.299L107.222 281.028C107.697 280.436 108.561 280.341 109.153 280.816C109.745 281.29 109.84 282.155 109.365 282.746L107.543 285.018C106.999 285.695 106.944 286.645 107.405 287.381L115.036 299.571L122.668 287.381C123.128 286.645 123.073 285.695 122.529 285.018L120.707 282.746C120.233 282.155 120.328 281.29 120.919 280.816C121.511 280.341 122.375 280.436 122.85 281.028L124.672 283.299C125.946 284.887 126.076 287.113 124.996 288.839L116.2 302.887C115.949 303.289 115.509 303.532 115.036 303.532Z" fill="#C5EBF5"/>
<path opacity="0.1" d="M105.955 282.608C105.986 282.642 106.02 282.675 106.057 282.706L107.729 284.072C107.854 284.174 107.996 284.239 108.143 284.27L109.365 282.747C109.839 282.155 109.744 281.29 109.153 280.816C108.561 280.341 107.697 280.436 107.222 281.028L105.955 282.608Z" fill="#413B38"/>
<path opacity="0.1" d="M124.117 282.608C124.086 282.642 124.052 282.675 124.015 282.706L122.343 284.072C122.218 284.174 122.076 284.239 121.929 284.27L120.707 282.747C120.233 282.155 120.328 281.29 120.919 280.816C121.511 280.341 122.375 280.436 122.85 281.028L124.117 282.608Z" fill="#413B38"/>
<path d="M106.725 280.529L107.917 279.07C108.645 278.178 109.989 278.023 110.867 278.769C111.718 279.491 111.837 280.765 111.127 281.634L109.907 283.128C109.566 283.544 108.953 283.606 108.536 283.266L106.863 281.899C106.447 281.559 106.385 280.945 106.725 280.529Z" fill="#413B38"/>
<path d="M123.347 280.529L122.155 279.07C121.427 278.178 120.083 278.023 119.205 278.769C118.354 279.491 118.235 280.765 118.945 281.634L120.165 283.128C120.506 283.544 121.119 283.606 121.536 283.266L123.209 281.899C123.625 281.559 123.687 280.945 123.347 280.529Z" fill="#413B38"/>
<path d="M125.534 317.909H123.169C117.927 317.909 113.663 313.645 113.663 308.403V302.159C113.663 301.4 114.278 300.785 115.036 300.785C115.795 300.785 116.41 301.4 116.41 302.159V308.403C116.41 312.13 119.442 315.163 123.169 315.163H125.534C130.495 315.163 134.531 311.127 134.531 306.166V302.159C134.531 301.4 135.146 300.785 135.905 300.785C136.663 300.785 137.278 301.4 137.278 302.159V306.166C137.278 312.641 132.01 317.909 125.534 317.909Z" fill="#D6FFF0"/>
<path opacity="0.1" d="M135.904 300.785C135.146 300.785 134.531 301.4 134.531 302.159V305.544C134.965 305.678 135.426 305.751 135.904 305.751C136.382 305.751 136.844 305.678 137.278 305.544V302.159C137.278 301.4 136.663 300.785 135.904 300.785Z" fill="#413B38"/>
<path opacity="0.1" d="M116.409 305.975V302.159C116.409 301.4 115.795 300.785 115.036 300.785C114.277 300.785 113.663 301.4 113.663 302.159V305.975C114.427 306.696 115.645 306.696 116.409 305.975Z" fill="#413B38"/>
<path d="M135.904 303.92C138.471 303.92 140.551 301.84 140.551 299.273C140.551 296.707 138.471 294.626 135.904 294.626C133.338 294.626 131.257 296.707 131.257 299.273C131.257 301.84 133.338 303.92 135.904 303.92Z" fill="#FAFDFC"/>
<path d="M135.904 301.77C137.283 301.77 138.401 300.652 138.401 299.273C138.401 297.894 137.283 296.776 135.904 296.776C134.525 296.776 133.407 297.894 133.407 299.273C133.407 300.652 134.525 301.77 135.904 301.77Z" fill="#D6FFF0"/>
<path opacity="0.1" d="M139.514 302.198C134.788 302.6 133.45 296.618 134.751 294.771C132.743 295.284 131.258 297.105 131.258 299.273C131.258 301.839 133.338 303.92 135.904 303.92C137.362 303.92 138.662 303.248 139.514 302.198Z" fill="#413B38"/>
<path d="M120.575 298.128L117.049 303.76C116.118 305.245 113.954 305.245 113.023 303.76L109.498 298.128C109.002 297.337 109.571 296.31 110.504 296.31H119.568C120.501 296.31 121.07 297.337 120.575 298.128Z" fill="#D6FFF0"/>
<path d="M111.04 300.592L113.023 303.76C113.954 305.245 116.118 305.245 117.049 303.76L119.032 300.592H111.04Z" fill="#FE6E31"/>
<path opacity="0.1" d="M113.023 303.76C113.954 305.245 116.118 305.245 117.049 303.76L117.807 302.549C114.695 304.445 112.526 298.416 111.995 296.31H110.504C109.571 296.31 109.002 297.337 109.498 298.128L113.023 303.76Z" fill="#413B38"/>
<path d="M140.625 296.985C140.48 296.688 140.123 296.564 139.826 296.708C139.529 296.852 139.405 297.21 139.549 297.507C139.817 298.06 139.953 298.654 139.953 299.273C139.953 301.506 138.137 303.322 135.904 303.322C133.672 303.322 131.856 301.506 131.856 299.273C131.856 297.041 133.672 295.224 135.904 295.224C136.643 295.224 137.366 295.425 137.994 295.804C138.277 295.975 138.644 295.884 138.815 295.602C138.986 295.319 138.895 294.952 138.612 294.781C137.798 294.289 136.861 294.029 135.904 294.029C133.013 294.029 130.66 296.381 130.66 299.273C130.66 301.468 132.016 303.351 133.933 304.132V306.166C133.933 310.797 130.165 314.565 125.534 314.565H123.169C119.772 314.565 117.007 311.801 117.007 308.403V304.724C117.216 304.538 117.402 304.322 117.555 304.077L121.081 298.445C121.431 297.887 121.449 297.209 121.13 296.633C121.083 296.548 121.029 296.468 120.971 296.394L125.502 289.156C126.717 287.215 126.571 284.711 125.138 282.925L124.091 281.619C124.123 281.517 124.145 281.411 124.156 281.302C124.198 280.885 124.075 280.475 123.809 280.15L122.618 278.692C122.161 278.132 121.483 277.773 120.759 277.707C120.044 277.642 119.355 277.857 118.818 278.313C117.725 279.241 117.574 280.901 118.482 282.012L119.702 283.506C119.968 283.831 120.344 284.033 120.762 284.075C120.816 284.081 120.869 284.083 120.922 284.083C120.952 284.083 120.981 284.081 121.01 284.08L122.063 285.392C122.447 285.871 122.487 286.543 122.161 287.064L116.746 295.712H113.326L107.911 287.064C107.585 286.543 107.625 285.871 108.009 285.392L109.062 284.08C109.091 284.081 109.12 284.083 109.149 284.083C109.203 284.083 109.256 284.081 109.31 284.075C109.727 284.033 110.104 283.831 110.369 283.506L111.59 282.012C112.498 280.901 112.347 279.241 111.254 278.313C110.717 277.857 110.028 277.642 109.313 277.707C108.589 277.773 107.911 278.132 107.454 278.692L106.262 280.15C105.915 280.576 105.829 281.13 105.982 281.618L104.934 282.925C103.501 284.711 103.355 287.215 104.57 289.156L109.101 296.394C109.043 296.468 108.989 296.548 108.942 296.633C108.623 297.209 108.641 297.887 108.991 298.445L112.517 304.077C112.67 304.322 112.856 304.538 113.065 304.724V308.403C113.065 309.901 113.387 311.344 114.021 312.693C114.123 312.909 114.338 313.036 114.562 313.036C114.648 313.036 114.734 313.018 114.817 312.979C115.115 312.838 115.243 312.482 115.103 312.183C114.544 310.996 114.26 309.724 114.26 308.403V305.37C114.509 305.436 114.77 305.472 115.036 305.472C115.302 305.472 115.562 305.436 115.811 305.37V308.403C115.811 312.46 119.112 315.76 123.169 315.76H125.534C130.825 315.76 135.129 311.456 135.129 306.166V304.46C135.382 304.498 135.641 304.518 135.904 304.518C136.168 304.518 136.427 304.498 136.68 304.46V306.166C136.68 312.312 131.68 317.312 125.534 317.312H123.169C120.653 317.312 118.24 316.235 116.55 314.359C116.329 314.113 115.951 314.094 115.705 314.315C115.46 314.536 115.44 314.914 115.661 315.159C117.578 317.287 120.314 318.507 123.169 318.507H125.534C132.339 318.507 137.876 312.971 137.876 306.166V304.132C139.793 303.351 141.149 301.468 141.149 299.273C141.149 298.471 140.973 297.701 140.625 296.985ZM121.158 282.803C121.121 282.832 121.08 282.854 121.037 282.868C121.034 282.869 121.031 282.871 121.028 282.872C120.981 282.886 120.932 282.891 120.882 282.886C120.782 282.876 120.692 282.827 120.628 282.749L119.408 281.255C118.909 280.645 118.992 279.734 119.592 279.224C119.848 279.007 120.17 278.891 120.511 278.891C120.557 278.891 120.604 278.894 120.65 278.898C121.057 278.935 121.437 279.136 121.692 279.449L122.884 280.907C123.015 281.067 122.991 281.305 122.83 281.436L121.158 282.803ZM123.174 287.699C123.77 286.747 123.698 285.52 122.996 284.644L122.124 283.557L123.325 282.576L124.206 283.673C125.32 285.063 125.434 287.012 124.489 288.522L119.96 295.755C119.834 295.728 119.702 295.713 119.568 295.713H118.157L123.174 287.699ZM107.188 280.907L108.38 279.449C108.635 279.136 109.015 278.935 109.422 278.898C109.814 278.862 110.19 278.978 110.48 279.224C111.08 279.734 111.163 280.645 110.664 281.255L109.444 282.749C109.312 282.91 109.075 282.934 108.914 282.803L107.242 281.436C107.081 281.305 107.057 281.067 107.188 280.907ZM105.583 288.522C104.638 287.011 104.751 285.063 105.866 283.673L106.747 282.576L107.948 283.557L107.076 284.644C106.374 285.52 106.302 286.747 106.898 287.698L111.915 295.713H110.504C110.37 295.713 110.239 295.728 110.112 295.755L105.583 288.522ZM115.036 304.276C114.42 304.276 113.857 303.964 113.53 303.442L110.004 297.81C109.838 297.545 109.938 297.304 109.988 297.212C110.016 297.161 110.076 297.072 110.178 297.003C110.181 297.002 110.183 297.001 110.186 297C110.189 296.998 110.191 296.995 110.194 296.994C110.273 296.945 110.374 296.908 110.504 296.908H112.994C112.994 296.908 112.995 296.908 112.995 296.908C112.996 296.908 112.996 296.908 112.996 296.908H117.075C117.076 296.908 117.076 296.908 117.076 296.908C117.077 296.908 117.077 296.908 117.078 296.908H119.568C119.697 296.908 119.799 296.945 119.877 296.993C119.88 296.995 119.883 296.998 119.886 297C119.888 297.001 119.891 297.002 119.893 297.004C119.995 297.072 120.055 297.161 120.084 297.212C120.134 297.304 120.234 297.545 120.068 297.811L116.542 303.442C116.215 303.964 115.652 304.276 115.036 304.276ZM135.904 296.178C134.198 296.178 132.809 297.566 132.809 299.273C132.809 300.98 134.198 302.368 135.904 302.368C137.611 302.368 138.999 300.98 138.999 299.273C138.999 297.566 137.611 296.178 135.904 296.178ZM135.904 301.173C134.857 301.173 134.005 300.321 134.005 299.273C134.005 298.226 134.857 297.374 135.904 297.374C136.952 297.374 137.804 298.226 137.804 299.273C137.804 300.321 136.952 301.173 135.904 301.173Z" fill="#413B38"/>
</g>
</g>
<g filter="url(#filter4_d_2_229)">
<ellipse cx="118.739" cy="93.116" rx="51.0145" ry="50.087" fill="#FFEF63"/>
<path d="M167.254 93.1159C167.254 119.354 145.576 140.703 118.739 140.703C91.9018 140.703 70.2246 119.354 70.2246 93.1159C70.2246 66.8774 91.9018 45.529 118.739 45.529C145.576 45.529 167.254 66.8774 167.254 93.1159Z" stroke="white" stroke-width="5"/>
</g>
<g filter="url(#filter5_d_2_229)">
<circle cx="485.116" cy="407.551" r="27.8261" fill="#FFEF63"/>
<circle cx="485.116" cy="407.551" r="25.3261" stroke="white" stroke-width="5"/>
</g>
<g filter="url(#filter6_d_2_229)">
<ellipse cx="263.898" cy="508.652" rx="47.7681" ry="47.3043" fill="#FFEF63"/>
<path d="M309.167 508.652C309.167 533.374 288.922 553.457 263.898 553.457C238.875 553.457 218.63 533.374 218.63 508.652C218.63 483.93 238.875 463.848 263.898 463.848C288.922 463.848 309.167 483.93 309.167 508.652Z" stroke="white" stroke-width="5"/>
</g>
<g filter="url(#filter7_d_2_229)">
<ellipse cx="396.071" cy="46.2754" rx="41.7391" ry="41.2754" fill="#FFEF63"/>
<path d="M435.31 46.2754C435.31 67.6641 417.769 85.0507 396.071 85.0507C374.374 85.0507 356.832 67.6641 356.832 46.2754C356.832 24.8866 374.374 7.5 396.071 7.5C417.769 7.5 435.31 24.8866 435.31 46.2754Z" stroke="white" stroke-width="5"/>
</g>
<g filter="url(#filter8_d_2_229)"  >

  <animateTransform attributeName="transform"
                          attributeType="XML"
                          type="rotate"
                           from="0 273 278"
                          to="360 273 278"
                          dur="25s"
                          repeatCount="indefinite" />  
						   
<ellipse cx="428.072" cy="208.13" rx="41.2754" ry="41.7391" fill="#FFEF63"/>
<path d="M466.848 208.13C466.848 229.828 449.461 247.37 428.072 247.37C406.684 247.37 389.297 229.828 389.297 208.13C389.297 186.433 406.684 168.891 428.072 168.891C449.461 168.891 466.848 186.433 466.848 208.13Z" stroke="white" stroke-width="5"/>
<g clip-path="url(#clip3_2_229)">
<path d="M439.816 186.747C437.458 186.74 435.245 187.335 433.333 188.382C430.074 190.166 426.074 190.166 422.814 188.382C420.902 187.335 418.689 186.74 416.331 186.747C409.108 186.769 403.276 192.635 403.314 199.595C403.379 211.633 407.883 226.684 413.972 232.551C415.004 233.545 416.431 234.158 418.007 234.152C421.148 234.14 423.645 231.616 423.659 228.59C423.683 223.674 425.919 222.566 428.074 222.566C430.229 222.566 432.464 223.674 432.488 228.59C432.503 231.616 435 234.14 438.14 234.152C439.716 234.158 441.144 233.545 442.176 232.551C448.264 226.684 452.769 211.633 452.834 199.595C452.871 192.635 447.039 186.769 439.816 186.747Z" fill="#F7F7F7"/>
<path opacity="0.05" d="M434.488 190.906L434.419 190.803C433.938 190.073 433.524 189.446 432.704 188.699C432.21 188.929 431.702 189.12 431.184 189.272C432.251 190.121 432.663 190.746 433.195 191.553L433.264 191.657C433.402 191.866 433.636 191.981 433.876 191.981C434.009 191.981 434.144 191.945 434.265 191.871C434.603 191.664 434.703 191.232 434.488 190.906ZM421.728 190.803L421.66 190.906C421.445 191.232 421.544 191.664 421.882 191.871C422.003 191.945 422.138 191.981 422.271 191.981C422.511 191.981 422.745 191.866 422.883 191.657L422.952 191.553C423.485 190.746 423.897 190.121 424.963 189.272C424.445 189.12 423.937 188.929 423.443 188.699C422.624 189.446 422.21 190.073 421.728 190.803Z" fill="#413B38"/>
<path opacity="0.05" d="M435.695 222.804C433.069 219.806 427.381 218.282 419.342 219.636C407.844 221.572 408.451 195.673 412.063 187.471C406.945 189.246 403.284 194.076 403.314 199.595C403.379 211.633 407.883 226.684 413.972 232.551C415.004 233.545 416.431 234.158 418.007 234.152C421.148 234.14 423.645 231.616 423.659 228.59C423.683 223.674 425.919 222.566 428.074 222.566C430.229 222.566 432.464 223.674 432.488 228.59C432.503 231.616 435 234.14 438.14 234.152C439.716 234.158 441.144 233.545 442.176 232.551C445.064 229.767 447.596 224.916 449.466 219.301C442.31 230.013 438.106 225.558 435.695 222.804Z" fill="#413B38"/>
<path d="M418.041 207.839C420.085 207.839 421.743 206.567 421.743 204.998C421.743 203.429 420.085 202.157 418.041 202.157C415.997 202.157 414.34 203.429 414.34 204.998C414.34 206.567 415.997 207.839 418.041 207.839Z" fill="#F28B74"/>
<path d="M438.106 207.839C440.151 207.839 441.808 206.567 441.808 204.998C441.808 203.429 440.151 202.157 438.106 202.157C436.062 202.157 434.405 203.429 434.405 204.998C434.405 206.567 436.062 207.839 438.106 207.839Z" fill="#F28B74"/>
<path d="M428.074 205.4C426.592 205.4 425.391 204.242 425.391 202.815V200.936C425.391 200.546 425.719 200.23 426.124 200.23H430.024C430.428 200.23 430.756 200.546 430.756 200.936V202.815C430.756 204.242 429.555 205.4 428.074 205.4Z" fill="#413B38"/>
<path d="M448.767 194.494C448.503 195.079 447.642 195.079 447.378 194.494C446.859 193.346 445.908 192.43 444.717 191.93C444.11 191.675 444.11 190.846 444.717 190.591C445.908 190.091 446.859 189.175 447.378 188.027C447.642 187.442 448.503 187.442 448.767 188.027C449.286 189.175 450.237 190.091 451.428 190.591C452.035 190.846 452.035 191.675 451.428 191.93C450.237 192.43 449.286 193.346 448.767 194.494Z" fill="#FE6E31"/>
<path d="M443.293 216.618C443.097 217.052 442.458 217.052 442.262 216.618C441.877 215.766 441.171 215.086 440.287 214.715C439.837 214.526 439.837 213.911 440.287 213.721C441.171 213.35 441.877 212.671 442.262 211.819C442.458 211.385 443.097 211.385 443.293 211.819C443.678 212.67 444.383 213.35 445.267 213.721C445.718 213.911 445.718 214.526 445.267 214.715C444.383 215.086 443.678 215.766 443.293 216.618Z" fill="#FFEF63"/>
<path d="M410.122 224.74C409.785 225.485 408.688 225.485 408.352 224.74C407.69 223.277 406.479 222.11 404.961 221.473C404.188 221.148 404.188 220.091 404.961 219.767C406.479 219.13 407.69 217.963 408.352 216.5C408.688 215.755 409.785 215.755 410.122 216.5C410.783 217.963 411.994 219.13 413.512 219.767C414.285 220.091 414.285 221.148 413.512 221.473C411.994 222.11 410.783 223.277 410.122 224.74Z" fill="#FE6E31"/>
<path d="M452.42 206.047C452.012 205.997 451.637 206.277 451.586 206.672C450.177 217.475 446.183 227.67 441.647 232.041C440.716 232.939 439.48 233.432 438.163 233.432H438.143C435.45 233.422 433.248 231.248 433.235 228.587C433.209 223.016 430.414 221.846 428.074 221.846C425.734 221.846 422.939 223.016 422.912 228.587C422.899 231.248 420.698 233.422 418.004 233.432H417.984C416.668 233.432 415.431 232.939 414.5 232.041C414.223 231.775 413.943 231.481 413.668 231.168C413.401 230.865 412.929 230.828 412.615 231.086C412.3 231.343 412.261 231.798 412.529 232.101C412.83 232.443 413.138 232.766 413.443 233.06C414.657 234.229 416.268 234.872 417.984 234.872H418.01C421.521 234.859 424.39 232.042 424.407 228.593C424.432 223.286 427.173 223.286 428.074 223.286C428.974 223.286 431.715 223.286 431.741 228.593C431.757 232.042 434.627 234.859 438.137 234.872H438.163C439.879 234.872 441.491 234.229 442.704 233.06C445.132 230.72 447.411 226.893 449.294 221.991C451.052 217.417 452.392 212.04 453.069 206.851C453.12 206.456 452.83 206.096 452.42 206.047ZM418.66 202.364C419.072 202.364 419.407 202.041 419.407 201.643V200.112C419.407 199.714 419.072 199.392 418.66 199.392C418.247 199.392 417.912 199.714 417.912 200.112V201.643C417.912 202.041 418.247 202.364 418.66 202.364ZM441.577 216.906C441.785 217.366 442.256 217.664 442.777 217.664C443.299 217.664 443.77 217.366 443.978 216.906C444.289 216.218 444.853 215.675 445.566 215.375C446.044 215.175 446.353 214.721 446.353 214.218C446.353 213.716 446.044 213.262 445.566 213.061C444.853 212.762 444.289 212.219 443.978 211.531C443.77 211.071 443.299 210.773 442.777 210.773C442.256 210.773 441.785 211.071 441.577 211.531C441.266 212.219 440.702 212.762 439.989 213.061C439.511 213.262 439.202 213.716 439.202 214.218C439.202 214.721 439.511 215.175 439.989 215.375C440.702 215.675 441.266 216.218 441.577 216.906ZM442.777 212.442C443.2 213.196 443.838 213.811 444.62 214.218C443.838 214.625 443.2 215.241 442.777 215.995C442.355 215.241 441.716 214.625 440.934 214.218C441.716 213.811 442.355 213.196 442.777 212.442ZM451.618 192.639C451.654 192.622 451.69 192.606 451.727 192.59C452.284 192.356 452.631 191.846 452.631 191.26C452.631 190.674 452.284 190.165 451.727 189.931C450.705 189.502 449.897 188.724 449.453 187.739C449.21 187.202 448.681 186.868 448.073 186.868C447.464 186.868 446.936 187.202 446.693 187.739C446.677 187.773 446.66 187.806 446.644 187.84C444.567 186.66 442.224 186.034 439.819 186.027C437.41 186.021 435.043 186.617 432.964 187.756C429.947 189.407 426.2 189.407 423.183 187.756C421.117 186.624 418.763 186.026 416.372 186.026C416.358 186.026 416.343 186.027 416.329 186.027C412.701 186.037 409.271 187.435 406.67 189.962C404.004 192.553 402.547 195.975 402.567 199.599C402.599 205.54 403.724 212.424 405.661 218.569C405.35 218.778 405.017 218.958 404.663 219.107C404.028 219.373 403.634 219.953 403.634 220.62C403.634 221.287 404.028 221.867 404.663 222.133C406.012 222.699 407.079 223.727 407.666 225.027C407.844 225.42 408.156 225.717 408.54 225.879C409.142 227.107 409.774 228.245 410.422 229.263C410.563 229.485 410.808 229.607 411.06 229.607C411.193 229.607 411.328 229.572 411.45 229.5C411.802 229.292 411.912 228.849 411.696 228.51C411.166 227.677 410.646 226.758 410.145 225.772C410.431 225.6 410.663 225.345 410.807 225.027C411.394 223.727 412.461 222.7 413.81 222.133C414.445 221.867 414.839 221.287 414.839 220.62C414.839 219.953 414.445 219.373 413.81 219.107C412.461 218.541 411.395 217.513 410.807 216.213C410.53 215.601 409.929 215.221 409.237 215.221C408.544 215.221 407.943 215.601 407.666 216.213C407.461 216.668 407.195 217.089 406.88 217.469C405.113 211.629 404.091 205.181 404.061 199.591C404.044 196.353 405.347 193.294 407.732 190.977C410.051 188.723 413.106 187.477 416.333 187.467C416.346 187.467 416.359 187.467 416.372 187.467C418.504 187.467 420.603 187.999 422.445 189.008C425.917 190.909 430.23 190.909 433.702 189.008C435.555 187.993 437.666 187.46 439.814 187.467C441.915 187.473 443.964 188.01 445.789 189.026C445.4 189.405 444.937 189.713 444.418 189.931C443.861 190.165 443.514 190.674 443.514 191.26C443.514 191.846 443.861 192.356 444.418 192.59C445.44 193.019 446.248 193.797 446.693 194.782C446.935 195.319 447.464 195.653 448.072 195.653C448.681 195.653 449.209 195.319 449.452 194.782C449.678 194.283 449.996 193.838 450.388 193.464C451.512 195.331 452.098 197.433 452.086 199.591C452.08 200.808 452.026 202.08 451.928 203.373C451.897 203.77 452.206 204.115 452.618 204.144C452.637 204.145 452.655 204.146 452.674 204.146C453.062 204.146 453.389 203.857 453.418 203.478C453.519 202.153 453.574 200.848 453.581 199.599C453.594 197.143 452.916 194.753 451.618 192.639ZM409.037 216.788C409.084 216.683 409.171 216.662 409.237 216.662C409.302 216.662 409.39 216.683 409.437 216.788C410.176 218.423 411.517 219.715 413.214 220.427C413.322 220.473 413.345 220.557 413.345 220.62C413.345 220.683 413.322 220.767 413.214 220.813C411.517 221.525 410.176 222.817 409.437 224.452C409.39 224.557 409.302 224.578 409.237 224.578C409.229 224.578 409.222 224.578 409.214 224.577C409.202 224.575 409.19 224.573 409.178 224.572C409.126 224.559 409.071 224.527 409.037 224.452C408.298 222.817 406.956 221.525 405.26 220.813C405.152 220.767 405.129 220.683 405.129 220.62C405.129 220.557 405.152 220.473 405.26 220.427C406.956 219.715 408.298 218.423 409.037 216.788ZM451.13 191.27C449.761 191.844 448.678 192.887 448.082 194.206L448.767 194.494L448.082 194.211C448.078 194.213 448.067 194.213 448.063 194.206C447.467 192.887 446.384 191.844 445.01 191.269C445.008 191.265 445.008 191.255 445.015 191.251C446.04 190.821 446.904 190.129 447.524 189.252C447.525 189.251 447.526 189.249 447.527 189.248C447.528 189.247 447.528 189.247 447.528 189.246C447.735 188.954 447.914 188.64 448.063 188.31C448.067 188.308 448.078 188.308 448.082 188.314C448.679 189.634 449.761 190.677 451.135 191.251C451.137 191.255 451.137 191.265 451.13 191.27ZM438.235 201.643V200.112C438.235 199.714 437.901 199.392 437.488 199.392C437.075 199.392 436.741 199.714 436.741 200.112V201.643C436.741 202.041 437.075 202.364 437.488 202.364C437.901 202.364 438.235 202.041 438.235 201.643ZM428.074 206.12C429.965 206.12 431.503 204.637 431.503 202.815V200.936C431.503 200.15 430.839 199.51 430.024 199.51H426.124C425.308 199.51 424.644 200.15 424.644 200.936V202.815C424.644 204.637 426.183 206.12 428.074 206.12ZM426.139 200.951H430.008V202.815C430.008 203.843 429.141 204.679 428.074 204.679C427.007 204.679 426.139 203.843 426.139 202.815L426.139 200.951Z" fill="#413B38"/>
</g>
</g>
<g filter="url(#filter9_d_2_229)">
<circle cx="41.7536" cy="174.739" r="28.7536" fill="#FFEF63"/>
<circle cx="41.7536" cy="174.739" r="26.2536" stroke="white" stroke-width="5"/>
</g>
<g clip-path="url(#clip0_2_229)">
<path d="M65.5762 399.144C68.5957 399.144 71.0435 396.696 71.0435 393.677C71.0435 390.657 68.5957 388.209 65.5762 388.209C62.5567 388.209 60.1089 390.657 60.1089 393.677C60.1089 396.696 62.5567 399.144 65.5762 399.144Z" fill="#D1C4E9"/>
<path d="M65.5762 388.209C62.5567 388.209 60.1089 390.657 60.1089 393.677C60.1089 394.391 60.2475 395.073 60.4969 395.699C61.0904 395.466 61.6685 395.192 62.2255 394.874C62.7376 394.937 63.2542 394.97 63.7671 394.97C66.3606 394.97 68.8679 394.152 70.9495 392.671C70.4771 390.132 68.2518 388.209 65.5762 388.209Z" fill="#B0ADE2"/>
<path d="M54.8105 404.983C56.7015 404.983 58.2344 403.45 58.2344 401.559C58.2344 399.668 56.7015 398.135 54.8105 398.135C52.9195 398.135 51.3866 399.668 51.3866 401.559C51.3866 403.45 52.9195 404.983 54.8105 404.983Z" fill="#E1E7F0"/>
<path d="M73.8555 374.326C72.441 370.833 68.8339 368.616 64.9813 369.069C64.4931 369.126 64.0161 368.918 63.7087 368.535C61.8211 366.179 58.9201 364.67 55.6666 364.67C52.4131 364.67 49.5121 366.179 47.6245 368.535C47.3171 368.918 46.84 369.126 46.3519 369.069C42.5005 368.616 38.8925 370.832 37.4777 374.326C37.307 374.747 36.9394 375.056 36.4975 375.164C33.5472 375.883 31.3568 378.541 31.3568 381.712C31.3568 385.911 35.1396 389.038 39.1852 388.367C39.6707 388.287 40.1573 388.473 40.4837 388.841C42.6276 391.261 45.8841 392.458 49.1644 391.899C49.5121 391.84 49.8712 391.9 50.1693 392.088C51.76 393.094 53.6452 393.677 55.6666 393.677C57.688 393.677 59.5732 393.094 61.1639 392.088C61.462 391.9 61.821 391.84 62.1687 391.899C65.453 392.458 68.7085 391.258 70.8501 388.84C71.1759 388.473 71.6619 388.287 72.1468 388.367C76.1966 389.04 79.9764 385.908 79.9764 381.712C79.9764 378.541 77.7859 375.883 74.8357 375.164C74.3938 375.056 74.0262 374.748 73.8555 374.326Z" fill="#E1E7F0"/>
<path d="M58.7957 393.191C54.7248 392.645 51.9921 390.128 52.7602 386.894C52.8978 386.314 52.5432 385.739 51.9698 385.577C47.8081 384.402 47.224 379.61 49.7005 376.504C50.0305 376.09 50.0126 375.502 49.67 375.098C47.512 372.556 47.999 369.534 49.617 366.634C48.8712 367.177 48.2005 367.816 47.6246 368.535C47.3125 368.924 46.8196 369.122 46.3237 369.066C42.483 368.627 38.8892 370.84 37.4779 374.326C37.3071 374.747 36.9394 375.056 36.4973 375.164C33.5471 375.883 31.3568 378.541 31.3568 381.712C31.3568 385.911 35.1395 389.038 39.185 388.367C39.6597 388.289 40.1422 388.453 40.46 388.814C42.6085 391.257 45.8873 392.465 49.1876 391.895C49.5271 391.837 49.878 391.904 50.1693 392.088C51.76 393.094 53.6453 393.677 55.6666 393.677C56.7577 393.677 57.8087 393.506 58.7957 393.191Z" fill="#C9C3EE"/>
<path d="M48.5003 384.736C49.9607 384.736 51.1446 383.794 51.1446 382.631C51.1446 381.468 49.9607 380.525 48.5003 380.525C47.0399 380.525 45.8561 381.468 45.8561 382.631C45.8561 383.794 47.0399 384.736 48.5003 384.736Z" fill="white"/>
<path d="M62.8331 384.736C64.2935 384.736 65.4773 383.794 65.4773 382.631C65.4773 381.468 64.2935 380.525 62.8331 380.525C61.3727 380.525 60.1888 381.468 60.1888 382.631C60.1888 383.794 61.3727 384.736 62.8331 384.736Z" fill="white"/>
<path d="M54.8105 397.401C52.518 397.401 50.6529 399.266 50.6529 401.559C50.6529 404.775 54.1625 406.762 56.9135 405.146C57.2629 404.941 57.3798 404.491 57.1745 404.142C56.9694 403.792 56.5197 403.675 56.1703 403.88C54.3877 404.927 52.1203 403.636 52.1203 401.559C52.1203 400.075 53.3271 398.869 54.8105 398.869C56.4159 398.869 57.6676 400.272 57.4829 401.869C57.4365 402.272 57.7253 402.636 58.1279 402.682C58.5293 402.728 58.8943 402.44 58.9408 402.037C59.2242 399.571 57.2931 397.401 54.8105 397.401ZM75.0094 374.451C74.7929 374.398 74.6159 374.249 74.5356 374.051C73.9744 372.664 73.0995 371.474 72.0185 370.54H75.4041C75.8094 370.54 76.1378 370.211 76.1378 369.806C76.1378 369.401 75.8094 369.072 75.4041 369.072H72.4407L75.8318 364.155C76.1671 363.669 75.8181 363.005 75.2279 363.005H71.1535C70.7483 363.005 70.4198 363.333 70.4198 363.739C70.4198 364.144 70.7483 364.472 71.1535 364.472H73.8305C72.9938 365.687 70.4646 369.349 70.418 369.426C68.7729 368.52 66.852 368.11 64.8956 368.34C64.6652 368.367 64.4357 368.269 64.2812 368.076C62.1735 365.445 59.0336 363.937 55.6666 363.937C52.2997 363.937 49.1597 365.445 47.052 368.076C46.8976 368.269 46.668 368.367 46.4374 368.34C45.4589 368.225 44.4761 368.267 43.5165 368.463C43.1195 368.544 42.8636 368.932 42.9448 369.329C43.026 369.726 43.4136 369.982 43.8106 369.9C44.6172 369.736 45.4432 369.701 46.2662 369.798C47.003 369.884 47.7243 369.583 48.197 368.993C50.0249 366.712 52.7474 365.404 55.6666 365.404C58.5859 365.404 61.3084 366.712 63.1362 368.993C63.609 369.584 64.3314 369.884 65.0669 369.798C68.5315 369.391 71.8654 371.366 73.1754 374.601C73.4324 375.236 73.9882 375.713 74.662 375.877C77.3591 376.534 79.2427 378.934 79.2427 381.712C79.2427 385.423 75.8993 388.246 72.267 387.643C71.5379 387.522 70.8025 387.788 70.3009 388.354C68.309 390.602 65.3241 391.692 62.2918 391.176C61.7539 391.085 61.2142 391.188 60.7717 391.468C57.6624 393.434 53.6725 393.435 50.5614 391.468C50.1191 391.188 49.5793 391.085 49.0414 391.176C46.0441 391.686 43.0505 390.631 41.0328 388.355C40.531 387.788 39.7955 387.522 39.0653 387.643C37.3329 387.931 35.5639 387.438 34.2123 386.293C32.8639 385.15 32.0906 383.48 32.0906 381.712C32.0906 378.934 33.9742 376.534 36.6712 375.877C37.3453 375.713 37.9009 375.236 38.1577 374.601C38.726 373.198 39.6875 371.998 40.9385 371.13C41.2714 370.899 41.3543 370.442 41.1235 370.109C40.8927 369.776 40.4357 369.693 40.1024 369.924C38.6161 370.955 37.4733 372.382 36.7976 374.051C36.7174 374.249 36.5403 374.398 36.3238 374.451C32.9674 375.269 30.6232 378.255 30.6232 381.712C30.6232 383.912 31.5855 385.989 33.2633 387.412C34.9444 388.837 37.1471 389.449 39.3053 389.091C39.5344 389.053 39.7696 389.142 39.9346 389.328C42.2701 391.963 45.7566 393.224 49.2876 392.623C49.4676 392.592 49.6414 392.623 49.7771 392.708C52.6903 394.551 56.2445 394.887 59.3775 393.769C59.427 397.145 62.1877 399.878 65.5761 399.878C68.9954 399.878 71.7771 397.096 71.7771 393.677C71.7771 392.385 71.3765 391.14 70.6394 390.099C70.9037 389.857 71.1579 389.6 71.3994 389.327C71.564 389.141 71.7983 389.053 72.0266 389.091C76.5318 389.839 80.7101 386.351 80.7101 381.712C80.7101 378.255 78.3659 375.269 75.0094 374.451ZM65.5761 398.41C62.7611 398.41 60.5324 395.945 60.879 393.103C61.1088 392.98 61.3347 392.848 61.5561 392.708C61.6918 392.622 61.866 392.592 62.0456 392.623C64.6932 393.073 67.3374 392.478 69.4884 391.011C70.0215 391.792 70.3096 392.718 70.3096 393.677C70.3097 396.287 68.1862 398.41 65.5761 398.41ZM61.2919 381.237C62.027 381.237 62.7258 380.918 63.2094 380.363C63.4757 380.058 63.4438 379.594 63.1383 379.328C62.8329 379.062 62.3693 379.094 62.1032 379.399C61.8984 379.634 61.6027 379.769 61.292 379.769C60.9813 379.769 60.6857 379.634 60.4808 379.399C60.2146 379.094 59.7511 379.062 59.4457 379.328C59.1402 379.594 59.1085 380.058 59.3746 380.363C59.8582 380.918 60.5571 381.237 61.2919 381.237ZM65.9345 379.023H68.8301C69.2353 379.023 69.5638 378.694 69.5638 378.289C69.5638 377.884 69.2353 377.555 68.8301 377.555H67.3318L69.3172 374.676C69.6525 374.19 69.3035 373.526 68.7132 373.526H66.0077C65.6025 373.526 65.2741 373.855 65.2741 374.26C65.2741 374.665 65.6025 374.994 66.0077 374.994H67.316L65.3306 377.872C64.9952 378.358 65.3442 379.023 65.9345 379.023ZM56.7215 381.744C56.7215 381.122 56.2492 380.619 55.6666 380.619C55.0841 380.619 54.6118 381.122 54.6118 381.744C54.6118 382.365 55.0841 382.869 55.6666 382.869C56.2492 382.869 56.7215 382.365 56.7215 381.744ZM50.0414 381.237C50.7762 381.237 51.4751 380.918 51.9587 380.363C52.225 380.058 52.1932 379.594 51.8877 379.328C51.5823 379.062 51.1187 379.094 50.8526 379.399C50.6477 379.634 50.352 379.769 50.0414 379.769C49.7307 379.769 49.435 379.634 49.2302 379.399C48.964 379.094 48.5005 379.062 48.1951 379.328C47.8896 379.594 47.8577 380.058 48.124 380.363C48.6075 380.918 49.3063 381.237 50.0414 381.237Z" fill="#413B38"/>
</g>
<path d="M263.127 532.062C260.36 532.064 257.693 531.048 255.652 529.214C253.611 527.38 252.345 524.862 252.103 522.157C251.874 519.559 251.714 516.476 251.714 512.939C251.714 500.619 253.666 493.816 253.666 493.816H272.589C272.589 493.816 274.54 500.619 274.54 512.939C274.54 516.476 274.38 519.559 274.149 522.156C273.908 524.861 272.642 527.379 270.601 529.213C268.561 531.047 265.894 532.063 263.127 532.062Z" fill="#DBFFD6"/>
<path d="M272.583 496.718C273.719 496.718 274.64 495.814 274.64 494.699C274.64 493.584 273.719 492.68 272.583 492.68C271.447 492.68 270.526 493.584 270.526 494.699C270.526 495.814 271.447 496.718 272.583 496.718Z" fill="#E8B5AD"/>
<path d="M253.671 496.718C254.807 496.718 255.727 495.814 255.727 494.699C255.727 493.584 254.807 492.68 253.671 492.68C252.535 492.68 251.614 493.584 251.614 494.699C251.614 495.814 252.535 496.718 253.671 496.718Z" fill="#E8B5AD"/>
<path d="M263.127 504.721C268.151 504.721 272.225 500.723 272.225 495.792C272.225 490.86 268.151 486.863 263.127 486.863C258.102 486.863 254.029 490.86 254.029 495.792C254.029 500.723 258.102 504.721 263.127 504.721Z" fill="#FFE6DE"/>
<path d="M257.733 526.977C257.596 526.854 257.415 526.789 257.229 526.798C257.043 526.806 256.868 526.886 256.743 527.02C256.617 527.155 256.552 527.333 256.56 527.515C256.568 527.697 256.65 527.869 256.787 527.992C257.458 528.595 258.216 529.099 259.036 529.486C259.119 529.525 259.209 529.547 259.301 529.552C259.393 529.557 259.485 529.545 259.572 529.515C259.659 529.485 259.739 529.438 259.807 529.378C259.876 529.318 259.932 529.245 259.972 529.164C260.012 529.082 260.035 528.994 260.04 528.904C260.045 528.813 260.032 528.723 260.001 528.638C259.971 528.553 259.924 528.474 259.862 528.407C259.801 528.34 259.727 528.285 259.644 528.246C258.947 527.917 258.303 527.49 257.733 526.977Z" fill="#413B38"/>
<path d="M275.341 494.7C275.344 494.307 275.26 493.918 275.094 493.561C274.928 493.203 274.683 492.886 274.378 492.631C274.074 492.377 273.716 492.191 273.329 492.087C272.943 491.983 272.539 491.964 272.144 492.03C271.392 490.294 270.136 488.812 268.533 487.771C266.93 486.73 265.05 486.175 263.127 486.175C261.204 486.175 259.324 486.73 257.721 487.771C256.117 488.812 254.862 490.294 254.11 492.03C253.715 491.964 253.31 491.983 252.924 492.087C252.538 492.191 252.18 492.377 251.875 492.631C251.571 492.886 251.326 493.203 251.16 493.561C250.994 493.918 250.91 494.307 250.913 494.7C250.913 495.168 251.037 495.629 251.274 496.036C251.511 496.442 251.853 496.781 252.264 497.019C251.387 502.281 250.969 507.608 251.013 512.94C251.013 516.143 251.145 519.264 251.405 522.216C251.56 523.932 252.105 525.592 252.999 527.075C253.892 528.558 255.112 529.826 256.57 530.787C258.027 531.747 259.685 532.376 261.421 532.626C263.158 532.877 264.93 532.743 266.607 532.235C266.695 532.208 266.777 532.165 266.848 532.107C266.918 532.05 266.977 531.979 267.02 531.899C267.063 531.819 267.089 531.732 267.098 531.642C267.107 531.552 267.097 531.461 267.07 531.375C267.043 531.289 266.998 531.209 266.94 531.139C266.881 531.07 266.809 531.012 266.727 530.97C266.646 530.928 266.557 530.902 266.465 530.893C266.374 530.885 266.281 530.894 266.194 530.921C264.716 531.368 263.156 531.486 261.626 531.265C260.096 531.044 258.636 530.491 257.352 529.645C256.069 528.799 254.994 527.683 254.206 526.377C253.419 525.071 252.939 523.609 252.801 522.097C252.801 522.086 252.801 522.074 252.798 522.062C257.167 524.648 266.751 527.769 270.024 528.797C269.625 529.146 269.199 529.464 268.751 529.749C268.595 529.848 268.485 530.004 268.446 530.182C268.407 530.361 268.442 530.547 268.542 530.7C268.643 530.854 268.802 530.961 268.984 531C269.166 531.038 269.356 531.004 269.512 530.905C271.021 529.956 272.288 528.679 273.214 527.172C274.14 525.665 274.699 523.969 274.849 522.216C275.109 519.264 275.241 516.143 275.241 512.94C275.285 507.608 274.867 502.281 273.99 497.018C274.401 496.781 274.742 496.442 274.979 496.035C275.216 495.629 275.341 495.168 275.341 494.7ZM273.939 494.7C273.939 494.983 273.847 495.259 273.676 495.487C273.505 495.716 273.264 495.884 272.988 495.968C272.966 495.975 272.941 495.979 272.917 495.985C272.917 495.92 272.926 495.857 272.926 495.792C272.926 494.975 272.82 494.161 272.61 493.37C272.965 493.378 273.302 493.521 273.551 493.769C273.799 494.018 273.938 494.352 273.939 494.7ZM262.712 487.57C263.075 487.619 263.408 487.794 263.65 488.065C263.891 488.335 264.024 488.682 264.026 489.042C264.025 489.322 263.912 489.591 263.71 489.789C263.508 489.987 263.235 490.098 262.949 490.098C262.854 490.098 262.761 490.08 262.673 490.045C262.586 490.009 262.506 489.957 262.439 489.891C262.373 489.826 262.319 489.748 262.283 489.662C262.247 489.576 262.228 489.484 262.228 489.391C262.228 489.209 262.155 489.034 262.023 488.905C261.892 488.776 261.713 488.703 261.528 488.703C261.342 488.703 261.163 488.776 261.032 488.905C260.901 489.034 260.827 489.209 260.827 489.391C260.827 489.943 261.051 490.473 261.449 490.863C261.847 491.254 262.386 491.473 262.949 491.474C263.606 491.473 264.236 491.216 264.7 490.76C265.164 490.305 265.426 489.687 265.427 489.042C265.425 488.609 265.321 488.183 265.125 487.795C266.271 488.071 267.345 488.58 268.277 489.29C269.208 490 269.977 490.895 270.533 491.916C271.089 492.938 271.419 494.062 271.502 495.217C271.586 496.372 271.42 497.532 271.016 498.619C270.952 498.791 270.96 498.98 271.039 499.145C271.117 499.311 271.259 499.439 271.434 499.501C271.608 499.564 271.801 499.556 271.97 499.479C272.138 499.402 272.269 499.262 272.333 499.091C272.486 498.67 272.609 498.239 272.701 497.801C272.973 499.42 273.25 501.46 273.462 503.912C271.737 505.744 269.232 507.33 266.001 508.625C265.149 508.968 264.248 509.285 263.325 509.576C259.389 508.334 255.333 506.429 252.824 503.532C253.031 501.256 253.292 499.349 253.549 497.817C253.874 499.298 254.551 500.682 255.524 501.857C256.497 503.032 257.739 503.965 259.149 504.58C260.559 505.195 262.097 505.475 263.638 505.396C265.178 505.318 266.679 504.883 268.016 504.128C268.099 504.085 268.173 504.026 268.232 503.954C268.291 503.882 268.335 503.799 268.361 503.711C268.387 503.622 268.395 503.529 268.383 503.437C268.372 503.345 268.342 503.257 268.295 503.177C268.248 503.097 268.185 503.027 268.109 502.971C268.034 502.915 267.948 502.875 267.857 502.853C267.766 502.831 267.67 502.827 267.577 502.841C267.484 502.856 267.395 502.889 267.316 502.938C266.215 503.56 264.986 503.928 263.719 504.016C262.453 504.104 261.183 503.909 260.004 503.445C258.826 502.982 257.77 502.262 256.916 501.34C256.062 500.418 255.432 499.318 255.074 498.122C254.716 496.927 254.639 495.667 254.848 494.438C255.058 493.209 255.549 492.043 256.284 491.027C257.02 490.011 257.98 489.172 259.094 488.573C260.207 487.975 261.444 487.632 262.712 487.57ZM252.675 505.371C258.882 511.338 270.883 512.825 273.837 513.106C273.834 515.527 273.753 517.896 273.597 520.18C270.45 519.745 257.921 517.706 252.419 512.201C252.435 509.683 252.53 507.4 252.675 505.371ZM265.64 510.239C265.942 510.129 266.241 510.016 266.531 509.898C269.121 508.921 271.515 507.502 273.602 505.707C273.724 507.521 273.809 509.524 273.832 511.72C271.068 511.425 268.33 510.93 265.64 510.239ZM253.643 493.37C253.434 494.161 253.328 494.975 253.328 495.792C253.328 495.856 253.332 495.92 253.333 495.984C253.309 495.978 253.283 495.974 253.259 495.966C252.955 495.87 252.695 495.671 252.526 495.404C252.356 495.137 252.289 494.821 252.335 494.51C252.381 494.199 252.537 493.914 252.777 493.706C253.017 493.498 253.324 493.379 253.643 493.372V493.37ZM271.114 527.694C268.653 526.929 256.399 523.043 252.667 520.335C252.527 518.308 252.448 516.209 252.427 514.07C258.714 519.314 270.524 521.165 273.494 521.557C273.479 521.736 273.469 521.92 273.454 522.097C273.276 524.154 272.46 526.107 271.114 527.694Z" fill="#413B38"/>
<path d="M269.138 502.53C269.271 502.658 269.45 502.728 269.635 502.726C269.821 502.724 269.999 502.65 270.129 502.52C270.479 502.168 270.802 501.791 271.094 501.392C271.203 501.243 271.247 501.059 271.216 500.879C271.186 500.699 271.085 500.538 270.933 500.432C270.782 500.325 270.595 500.282 270.411 500.312C270.228 500.341 270.064 500.441 269.955 500.589C269.705 500.932 269.428 501.256 269.127 501.557C269.063 501.622 269.012 501.698 268.978 501.782C268.943 501.866 268.926 501.956 268.927 502.046C268.928 502.136 268.947 502.226 268.983 502.309C269.019 502.392 269.072 502.467 269.138 502.53Z" fill="#413B38"/>
<path d="M260.962 499.594C260.909 499.419 260.787 499.272 260.624 499.185C260.46 499.098 260.268 499.079 260.09 499.131C259.912 499.183 259.762 499.303 259.674 499.463C259.585 499.624 259.565 499.812 259.619 499.987C260.104 501.584 261.73 502.299 263.127 502.299C264.524 502.299 266.15 501.584 266.635 499.987C266.662 499.9 266.67 499.809 266.661 499.72C266.651 499.63 266.624 499.543 266.58 499.463C266.536 499.384 266.477 499.313 266.406 499.256C266.334 499.199 266.252 499.157 266.164 499.131C266.076 499.105 265.983 499.097 265.891 499.106C265.8 499.115 265.711 499.142 265.63 499.185C265.549 499.228 265.478 499.286 265.42 499.356C265.361 499.427 265.318 499.507 265.292 499.594C265.011 500.512 264.004 500.923 263.127 500.923C262.25 500.923 261.241 500.512 260.962 499.594Z" fill="#413B38"/>
<path d="M265.049 495.593C265.211 495.684 265.402 495.708 265.581 495.66C265.76 495.612 265.913 495.496 266.005 495.338C266.082 495.192 266.198 495.069 266.341 494.984C266.483 494.898 266.647 494.853 266.815 494.853C266.982 494.853 267.146 494.898 267.288 494.984C267.431 495.069 267.547 495.192 267.624 495.338C267.718 495.492 267.87 495.604 268.048 495.65C268.225 495.695 268.414 495.671 268.573 495.581C268.732 495.492 268.85 495.345 268.9 495.172C268.95 494.999 268.929 494.813 268.841 494.655C268.642 494.298 268.349 494.001 267.992 493.794C267.636 493.587 267.229 493.477 266.815 493.477C266.4 493.477 265.994 493.587 265.637 493.794C265.281 494.001 264.988 494.298 264.788 494.655C264.743 494.733 264.713 494.82 264.702 494.909C264.69 494.999 264.697 495.09 264.721 495.177C264.745 495.264 264.786 495.346 264.843 495.417C264.899 495.489 264.969 495.549 265.049 495.593Z" fill="#413B38"/>
<path d="M257.674 495.593C257.835 495.684 258.026 495.708 258.206 495.66C258.385 495.612 258.537 495.496 258.63 495.338C258.706 495.192 258.822 495.069 258.965 494.984C259.108 494.898 259.272 494.853 259.439 494.853C259.606 494.853 259.77 494.898 259.913 494.984C260.056 495.069 260.172 495.192 260.248 495.338C260.34 495.496 260.493 495.612 260.672 495.66C260.852 495.708 261.043 495.684 261.204 495.593C261.366 495.503 261.484 495.353 261.533 495.177C261.582 495.001 261.557 494.813 261.465 494.655C261.266 494.298 260.973 494.001 260.616 493.794C260.26 493.587 259.853 493.477 259.439 493.477C259.024 493.477 258.618 493.587 258.261 493.794C257.905 494.001 257.612 494.298 257.412 494.655C257.32 494.813 257.296 495.001 257.345 495.177C257.394 495.353 257.512 495.503 257.674 495.593Z" fill="#413B38"/>
<g clip-path="url(#clip1_2_229)">
<path d="M375.292 29.9363H418.562V42.9041C418.562 48.263 416.472 53.4025 412.753 57.1919C409.034 60.9813 403.989 63.1101 398.73 63.1101H395.124C389.864 63.1101 384.82 60.9813 381.101 57.1919C377.382 53.4025 375.292 48.263 375.292 42.9041V29.9363Z" fill="#F0BF91"/>
<path d="M418.379 45.6504C417.831 49.7142 416.082 53.5119 413.365 56.5391C410.648 59.5662 407.091 61.6797 403.167 62.5988V61.5855C403.166 57.4339 404.756 53.4458 407.597 50.4698C410.438 47.4937 414.306 45.7646 418.379 45.6504Z" fill="#F5E8C5"/>
<path d="M375.474 45.6504C376.023 49.7142 377.772 53.5119 380.489 56.5391C383.206 59.5662 386.762 61.6797 390.686 62.5988V61.5855C390.687 57.4339 389.098 53.4458 386.257 50.4698C383.416 47.4937 379.547 45.7646 375.474 45.6504Z" fill="#F5E8C5"/>
<path d="M408.34 34.7762H420.364V43.0822H408.34C407.259 43.0822 406.222 42.6447 405.458 41.8658C404.693 41.087 404.264 40.0306 404.264 38.9292C404.264 37.8277 404.693 36.7714 405.458 35.9926C406.222 35.2137 407.259 34.7762 408.34 34.7762Z" fill="white"/>
<path d="M385.514 43.0822H373.489V34.7762H385.514C386.595 34.7762 387.631 35.2137 388.396 35.9926C389.16 36.7714 389.59 37.8278 389.59 38.9292C389.59 40.0307 389.16 41.087 388.396 41.8658C387.631 42.6447 386.595 43.0822 385.514 43.0822Z" fill="white"/>
<path d="M388.399 51.9597C388.29 51.8023 388.124 51.6957 387.937 51.6632C387.751 51.6307 387.559 51.6751 387.405 51.7865C387.25 51.8979 387.145 52.0673 387.114 52.2573C387.082 52.4473 387.125 52.6425 387.235 52.7998C387.551 53.255 387.843 53.7277 388.109 54.2156C388.2 54.3842 388.354 54.5087 388.536 54.5617C388.718 54.6147 388.913 54.5918 389.079 54.4982C389.244 54.4046 389.366 54.2478 389.418 54.0624C389.47 53.877 389.448 53.6782 389.356 53.5096C389.065 52.9755 388.746 52.4581 388.399 51.9597Z" fill="#413B38"/>
<path d="M420.364 37.4877C420.554 37.4876 420.735 37.411 420.869 37.2747C421.002 37.1384 421.078 36.9537 421.078 36.7609V34.7762C421.078 34.5835 421.002 34.3987 420.869 34.2624C420.735 34.1261 420.554 34.0495 420.364 34.0494H419.276V29.9355C419.276 29.7427 419.201 29.5579 419.067 29.4217C418.933 29.2854 418.752 29.2088 418.563 29.2087H375.291C375.102 29.2088 374.92 29.2854 374.787 29.4217C374.653 29.5579 374.578 29.7427 374.578 29.9355V34.0511H373.489C373.3 34.0512 373.119 34.1278 372.985 34.2641C372.851 34.4004 372.776 34.5851 372.776 34.7779V43.0839C372.776 43.2766 372.851 43.4615 372.985 43.5978C373.119 43.7341 373.3 43.8107 373.489 43.8107H374.605C374.847 49.1948 377.113 54.2777 380.933 58.0059C384.754 61.7341 389.835 63.8219 395.125 63.8365H398.728C404.018 63.8219 409.1 61.7341 412.92 58.0059C416.74 54.2777 419.006 49.1948 419.248 43.8107H420.364C420.554 43.8107 420.735 43.7341 420.869 43.5978C421.003 43.4615 421.078 43.2766 421.078 43.0839V40.1768C421.078 39.984 421.003 39.7992 420.869 39.6629C420.735 39.5266 420.554 39.45 420.364 39.45C420.175 39.45 419.994 39.5266 419.86 39.6629C419.726 39.7992 419.651 39.984 419.651 40.1768V42.3571H408.34C407.448 42.3571 406.593 41.9961 405.962 41.3536C405.331 40.7111 404.977 39.8396 404.977 38.9309C404.977 38.0222 405.331 37.1507 405.962 36.5082C406.593 35.8656 407.448 35.5046 408.34 35.5046H419.651V36.7626C419.652 36.955 419.727 37.1394 419.861 37.2753C419.994 37.4112 420.176 37.4876 420.364 37.4877ZM374.203 35.5046H385.514C386.406 35.5046 387.261 35.8656 387.892 36.5082C388.522 37.1507 388.876 38.0222 388.876 38.9309C388.876 39.8396 388.522 40.7111 387.892 41.3536C387.261 41.9961 386.406 42.3571 385.514 42.3571H374.203V35.5046ZM403.881 61.6557V61.5856C403.859 57.7711 405.253 54.0893 407.784 51.2782C410.315 48.467 413.794 46.7342 417.526 46.4271C416.867 50.0073 415.241 53.3292 412.83 56.0192C410.42 58.7092 407.32 60.6607 403.881 61.6541V61.6557ZM403.55 38.9309C403.552 40.2246 404.057 41.465 404.955 42.3798C405.853 43.2947 407.07 43.8092 408.34 43.8107H417.821C417.804 44.1961 417.778 44.579 417.74 44.9581C413.588 45.2121 409.69 47.0772 406.847 50.17C404.003 53.2628 402.431 57.348 402.454 61.5856V62.0071C401.227 62.2561 399.979 62.3813 398.728 62.3809H395.125C393.874 62.3813 392.626 62.2561 391.4 62.0071V61.5856C391.402 59.732 391.1 57.8911 390.507 56.1389C390.445 55.9566 390.315 55.8069 390.144 55.7225C389.974 55.6381 389.778 55.626 389.599 55.6889C389.421 55.7518 389.274 55.8845 389.191 56.0578C389.108 56.2312 389.096 56.4309 389.158 56.6132C389.699 58.2128 389.975 59.8934 389.973 61.5856V61.6541C386.534 60.661 383.435 58.7103 381.025 56.0213C378.614 53.3323 376.988 50.0116 376.328 46.4325C379.836 46.7325 383.125 48.2927 385.609 50.8347C385.675 50.9022 385.753 50.9558 385.84 50.9923C385.926 51.0289 386.019 51.0478 386.113 51.0479C386.206 51.0479 386.299 51.0292 386.386 50.9928C386.472 50.9563 386.551 50.9029 386.617 50.8355C386.683 50.7681 386.736 50.688 386.772 50.5999C386.808 50.5118 386.826 50.4173 386.826 50.3219C386.826 50.2265 386.808 50.132 386.772 50.0439C386.737 49.9557 386.684 49.8755 386.618 49.808C383.816 46.9384 380.08 45.2126 376.115 44.9561C376.074 44.5769 376.05 44.194 376.033 43.809H385.514C386.784 43.809 388.002 43.2949 388.9 42.3797C389.799 41.4646 390.303 40.2234 390.303 38.9292C390.303 37.635 389.799 36.3938 388.9 35.4787C388.002 34.5635 386.784 34.0494 385.514 34.0494H376.004V30.6622H379.094V32.4281C379.094 32.6208 379.169 32.8057 379.303 32.942C379.437 33.0783 379.618 33.1549 379.807 33.1549C379.996 33.1549 380.178 33.0783 380.312 32.942C380.445 32.8057 380.52 32.6208 380.52 32.4281V30.6622H383.985V32.4281C383.985 32.6208 384.06 32.8057 384.194 32.942C384.328 33.0783 384.509 33.1549 384.698 33.1549C384.888 33.1549 385.069 33.0783 385.203 32.942C385.337 32.8057 385.412 32.6208 385.412 32.4281V30.6622H388.876V32.4281C388.876 32.6208 388.952 32.8057 389.085 32.942C389.219 33.0783 389.401 33.1549 389.59 33.1549C389.779 33.1549 389.96 33.0783 390.094 32.942C390.228 32.8057 390.303 32.6208 390.303 32.4281V30.6622H393.768V32.4281C393.768 32.6208 393.843 32.8057 393.977 32.942C394.111 33.0783 394.292 33.1549 394.481 33.1549C394.67 33.1549 394.852 33.0783 394.986 32.942C395.119 32.8057 395.194 32.6208 395.194 32.4281V30.6622H398.659V32.4281C398.659 32.6208 398.734 32.8057 398.868 32.942C399.002 33.0783 399.183 33.1549 399.372 33.1549C399.562 33.1549 399.743 33.0783 399.877 32.942C400.011 32.8057 400.086 32.6208 400.086 32.4281V30.6622H403.55V32.4281C403.55 32.6208 403.626 32.8057 403.759 32.942C403.893 33.0783 404.075 33.1549 404.264 33.1549C404.453 33.1549 404.634 33.0783 404.768 32.942C404.902 32.8057 404.977 32.6208 404.977 32.4281V30.6622H408.442V32.4281C408.442 32.6208 408.517 32.8057 408.651 32.942C408.784 33.0783 408.966 33.1549 409.155 33.1549C409.344 33.1549 409.526 33.0783 409.66 32.942C409.793 32.8057 409.868 32.6208 409.868 32.4281V30.6622H413.333V32.4281C413.333 32.6208 413.408 32.8057 413.542 32.942C413.676 33.0783 413.857 33.1549 414.046 33.1549C414.236 33.1549 414.417 33.0783 414.551 32.942C414.685 32.8057 414.76 32.6208 414.76 32.4281V30.6622H417.849V34.0511H408.34C407.07 34.0525 405.853 34.5669 404.955 35.4813C404.058 36.3958 403.552 37.6357 403.55 38.9292V38.9309Z" fill="#413B38"/>
<path d="M406.729 38.9292C406.729 39.3194 406.842 39.701 407.055 40.0256C407.267 40.3502 407.569 40.6034 407.923 40.7529C408.277 40.9025 408.666 40.9418 409.042 40.8658C409.418 40.7899 409.763 40.6022 410.034 40.3264C410.305 40.0505 410.489 39.699 410.564 39.3163C410.639 38.9336 410.601 38.5369 410.454 38.1763C410.308 37.8158 410.06 37.5076 409.741 37.2908C409.423 37.0739 409.048 36.9582 408.665 36.9582C408.152 36.9588 407.66 37.1667 407.298 37.5361C406.935 37.9056 406.73 38.4065 406.729 38.9292ZM409.175 38.9292C409.175 39.032 409.146 39.1325 409.09 39.2181C409.034 39.3037 408.954 39.3705 408.861 39.41C408.768 39.4495 408.666 39.4601 408.567 39.4402C408.468 39.4204 408.377 39.3711 408.306 39.2985C408.234 39.226 408.185 39.1335 408.166 39.0328C408.146 38.932 408.156 38.8276 408.194 38.7326C408.233 38.6376 408.298 38.5565 408.382 38.4994C408.466 38.4422 408.564 38.4117 408.665 38.4117C408.8 38.4119 408.929 38.4664 409.025 38.5633C409.12 38.6603 409.174 38.7919 409.175 38.9292Z" fill="#413B38"/>
<path d="M387.857 38.9292C387.857 38.5391 387.743 38.1579 387.53 37.8337C387.317 37.5095 387.015 37.2569 386.661 37.1079C386.307 36.9588 385.918 36.92 385.543 36.9963C385.167 37.0726 384.822 37.2606 384.552 37.5366C384.281 37.8125 384.097 38.164 384.022 38.5466C383.948 38.9293 383.986 39.3258 384.133 39.6862C384.279 40.0465 384.527 40.3545 384.846 40.5712C385.164 40.7879 385.538 40.9036 385.921 40.9036C386.435 40.9029 386.927 40.6946 387.29 40.3245C387.653 39.9543 387.857 39.4525 387.857 38.9292ZM385.412 38.9292C385.412 38.8266 385.442 38.7264 385.498 38.6413C385.555 38.5561 385.634 38.4898 385.727 38.4508C385.821 38.4118 385.923 38.4017 386.022 38.4219C386.12 38.4421 386.211 38.4917 386.282 38.5644C386.353 38.6371 386.402 38.7296 386.421 38.8302C386.441 38.9309 386.43 39.0352 386.392 39.1299C386.353 39.2247 386.288 39.3057 386.204 39.3626C386.12 39.4196 386.022 39.45 385.921 39.45C385.854 39.4499 385.788 39.4363 385.726 39.4101C385.664 39.3839 385.608 39.3455 385.561 39.2971C385.513 39.2488 385.476 39.1914 385.45 39.1283C385.425 39.0651 385.412 38.9975 385.412 38.9292Z" fill="#413B38"/>
<path d="M412.528 53.6949C412.457 53.6337 412.374 53.5875 412.284 53.5589C412.195 53.5304 412.101 53.5201 412.008 53.5286C411.914 53.5371 411.824 53.5642 411.741 53.6084C411.658 53.6526 411.584 53.713 411.524 53.7862C410.921 54.5207 410.259 55.2026 409.544 55.8249C409.4 55.9501 409.311 56.1284 409.296 56.3206C409.281 56.5128 409.342 56.7031 409.465 56.8497C409.588 56.9963 409.763 57.0872 409.951 57.1023C410.14 57.1175 410.327 57.0557 410.47 56.9305C411.246 56.2554 411.964 55.5155 412.618 54.7186C412.74 54.5707 412.798 54.3798 412.781 54.1878C412.765 53.9958 412.674 53.8185 412.528 53.6949Z" fill="#413B38"/>
</g>
<g clip-path="url(#clip2_2_229)">
<path d="M50.1957 173.19L43.303 166.297C41.9706 164.965 39.8105 164.965 38.4781 166.297L27.2776 177.498C26.3259 178.449 26.3259 179.992 27.2776 180.944L35.5488 189.215C36.5005 190.167 38.0435 190.167 38.9951 189.215L50.1957 178.015C51.528 176.682 51.528 174.522 50.1957 173.19Z" fill="white"/>
<path d="M36.4071 168.368L27.2776 177.498C26.3259 178.449 26.3259 179.992 27.2776 180.944L35.5488 189.215C36.5005 190.167 38.0435 190.167 38.9951 189.215L48.1247 180.086L36.4071 168.368Z" fill="#FDF9D8"/>
<path d="M53.7282 172.242L44.2508 162.765C43.6322 162.146 42.6293 162.146 42.0107 162.765C41.3921 163.383 41.3921 164.386 42.0107 165.005L51.4881 174.482C52.1067 175.101 53.1096 175.101 53.7282 174.482C54.3468 173.864 54.3468 172.861 53.7282 172.242Z" fill="#FDDC88"/>
<path d="M53.0257 171.54L48.9895 167.503L44.9532 163.467C46.0322 163.067 47.8002 163.74 48.8494 164.423C49.8986 165.106 50.2264 163.119 50.5806 162.56C50.6793 162.405 50.7918 162.254 50.9283 162.118C51.8801 161.166 53.4226 161.167 54.3744 162.118C55.326 163.07 55.3267 164.613 54.375 165.564C54.2386 165.701 54.088 165.813 53.9325 165.912C53.3737 166.266 51.3868 166.594 52.07 167.643C52.7531 168.693 53.4259 170.461 53.0257 171.54Z" fill="#FEBD80"/>
<path d="M31.402 173.953C31.5545 173.953 31.7041 173.891 31.8119 173.784C31.9198 173.675 31.9818 173.526 31.9818 173.374C31.9818 173.221 31.9198 173.072 31.8119 172.963C31.7041 172.855 31.5546 172.794 31.402 172.794C31.249 172.794 31.0999 172.855 30.9915 172.963C30.8837 173.072 30.8223 173.221 30.8223 173.374C30.8223 173.526 30.8837 173.676 30.9915 173.784C31.0999 173.891 31.249 173.953 31.402 173.953Z" fill="#413B38"/>
<path d="M53.525 166.723C53.8096 166.615 54.0556 166.521 54.243 166.402C54.4538 166.268 54.6311 166.128 54.785 165.975C55.9609 164.799 55.9607 162.885 54.7844 161.708C53.608 160.532 51.6944 160.532 50.5184 161.708C50.3648 161.862 50.2251 162.039 50.091 162.25C49.9723 162.437 49.8785 162.683 49.7699 162.968C49.6655 163.242 49.4244 163.874 49.2507 163.981C49.236 163.976 49.208 163.965 49.1658 163.937C48.344 163.402 46.5321 162.549 45.1266 162.82L44.6608 162.355C44.2521 161.946 43.7087 161.721 43.1308 161.721C42.5528 161.721 42.0094 161.946 41.6007 162.355C41.192 162.763 40.967 163.307 40.967 163.885C40.967 164.179 41.0258 164.465 41.1374 164.728C40.0347 164.661 38.909 165.046 38.0682 165.887L32.3325 171.623C32.1061 171.849 32.1061 172.216 32.3325 172.443C32.5589 172.669 32.926 172.669 33.1525 172.443L36.407 169.188L38.4695 171.251C38.5827 171.364 38.7311 171.42 38.8795 171.42C39.0278 171.42 39.1763 171.364 39.2894 171.251C39.5158 171.024 39.5158 170.657 39.2894 170.431L37.227 168.368L38.8882 166.707C39.4231 166.172 40.1343 165.878 40.8907 165.878C41.6471 165.878 42.3582 166.172 42.8931 166.707L49.7858 173.6C50.3207 174.135 50.6152 174.846 50.6152 175.602C50.6152 176.359 50.3206 177.07 49.7858 177.605L38.5853 188.805C37.8612 189.529 36.683 189.529 35.9588 188.805L27.6877 180.534C26.9636 179.81 26.9636 178.632 27.6877 177.908L30.3552 175.24C30.5816 175.014 30.5816 174.647 30.3552 174.42C30.1288 174.194 29.7617 174.194 29.5353 174.42L26.8677 177.088C25.6916 178.264 25.6916 180.178 26.8677 181.354L35.139 189.625C35.7271 190.213 36.4995 190.507 37.2721 190.507C38.0446 190.507 38.8171 190.213 39.4052 189.625L50.6058 178.425C51.4465 177.584 51.8321 176.458 51.7644 175.355C52.0279 175.467 52.3135 175.526 52.6082 175.526C53.1862 175.526 53.7295 175.301 54.1383 174.892C54.9819 174.049 54.9819 172.676 54.1383 171.832L53.6724 171.366C53.9437 169.961 53.091 168.149 52.5559 167.327C52.5283 167.285 52.5166 167.257 52.5117 167.242C52.6193 167.068 53.2511 166.828 53.525 166.723ZM53.3183 174.072C53.1287 174.262 52.8764 174.366 52.6082 174.366C52.34 174.366 52.0878 174.262 51.8981 174.072L42.4207 164.595C42.2311 164.405 42.1267 164.153 42.1267 163.885C42.1267 163.616 42.2311 163.364 42.4208 163.175C42.6165 162.979 42.8737 162.881 43.1309 162.881C43.388 162.881 43.6453 162.979 43.841 163.175L44.5432 163.877C44.5432 163.877 44.5433 163.877 44.5434 163.877L52.6159 171.95C52.6161 171.95 52.6163 171.95 52.6165 171.95L53.3183 172.652C53.7099 173.044 53.7099 173.681 53.3183 174.072ZM51.5841 167.96C52.007 168.609 52.3693 169.46 52.5074 170.201L46.2916 163.986C47.0326 164.124 47.8837 164.486 48.533 164.909C48.9801 165.2 49.3595 165.168 49.599 165.09C50.2869 164.866 50.601 164.043 50.8532 163.381C50.9285 163.184 51.0139 162.96 51.07 162.871C51.1578 162.733 51.2455 162.621 51.3382 162.528C52.062 161.804 53.2401 161.804 53.9644 162.528C54.6885 163.253 54.6888 164.431 53.965 165.155C53.8721 165.247 53.76 165.335 53.6219 165.423C53.5331 165.479 53.3092 165.564 53.1116 165.64C52.45 165.892 51.6266 166.206 51.4027 166.894C51.3249 167.133 51.2931 167.513 51.5841 167.96Z" fill="#413B38"/>
<path d="M47.2532 177.892C47.4015 177.892 47.5499 177.835 47.6632 177.722C47.8895 177.496 47.8895 177.129 47.6632 176.902L45.2457 174.485C45.0193 174.258 44.6522 174.258 44.4258 174.485C44.1994 174.711 44.1994 175.078 44.4258 175.305L46.8432 177.722C46.9564 177.835 47.1048 177.892 47.2532 177.892Z" fill="#413B38"/>
<path d="M41.6686 177.242C41.4422 177.468 41.4422 177.835 41.6686 178.062L44.086 180.479C44.1992 180.592 44.3476 180.649 44.496 180.649C44.6443 180.649 44.7928 180.592 44.9059 180.479C45.1323 180.253 45.1323 179.886 44.9059 179.659L42.4885 177.242C42.2621 177.015 41.8951 177.015 41.6686 177.242Z" fill="#413B38"/>
<path d="M38.9116 179.999C38.6852 180.225 38.6852 180.592 38.9116 180.819L41.3291 183.236C41.4423 183.349 41.5906 183.406 41.739 183.406C41.8874 183.406 42.0358 183.349 42.149 183.236C42.3754 183.01 42.3754 182.643 42.149 182.416L39.7315 179.999C39.5051 179.772 39.138 179.772 38.9116 179.999Z" fill="#413B38"/>
<path d="M36.1545 182.756C35.9281 182.982 35.9281 183.349 36.1545 183.576L38.572 185.993C38.6852 186.107 38.8335 186.163 38.9819 186.163C39.1303 186.163 39.2788 186.107 39.3919 185.993C39.6183 185.767 39.6183 185.4 39.3919 185.173L36.9745 182.756C36.748 182.53 36.3809 182.53 36.1545 182.756Z" fill="#413B38"/>
<path d="M41.236 173.197C41.3438 173.09 41.4059 172.94 41.4059 172.788C41.4059 172.634 41.3438 172.485 41.236 172.377C41.1282 172.269 40.9786 172.208 40.8261 172.208C40.6736 172.208 40.524 172.269 40.4162 172.377C40.3078 172.485 40.2463 172.634 40.2463 172.788C40.2463 172.94 40.3078 173.09 40.4162 173.197C40.524 173.305 40.6736 173.367 40.8261 173.367C40.9786 173.367 41.1282 173.305 41.236 173.197Z" fill="#413B38"/>
</g>


<path d="M100.449 107.583L102.12 109.262L96.3791 115.192C96.1606 115.418 95.8629 115.546 95.5516 115.549C95.2403 115.551 94.9409 115.427 94.7192 115.204C94.4975 114.982 94.3718 114.679 94.3696 114.362C94.3674 114.045 94.4889 113.74 94.7075 113.514L100.449 107.583Z" fill="#FFAA7A"/>
<path d="M137.994 71.1515C137.104 70.2453 135.897 69.7362 134.639 69.7362C133.381 69.7362 132.174 70.2453 131.284 71.1515L118.163 84.5161C115.698 87.027 113.209 91.3927 109.206 96.0574C105.052 100.897 99.8181 106.818 97.419 109.52C97.0657 109.918 96.8762 110.44 96.8898 110.976C96.9035 111.513 97.1191 112.024 97.4922 112.403C97.8645 112.783 98.366 113.003 98.8929 113.017C99.4198 113.031 99.9318 112.838 100.323 112.478C102.978 110.034 108.789 104.704 113.541 100.473C118.119 96.3949 122.408 93.8597 124.872 91.3497L137.994 77.9855C138.884 77.0792 139.383 75.8501 139.383 74.5685C139.383 73.2869 138.884 72.0578 137.994 71.1515Z" fill="#FFD6BE"/>
<path d="M137.992 77.9855L135.815 80.2035L129.108 73.3723L131.285 71.1544C131.725 70.7017 132.248 70.342 132.824 70.0959C133.401 69.8498 134.019 69.7222 134.644 69.7204C135.269 69.7186 135.889 69.8427 136.466 70.0855C137.044 70.3283 137.569 70.685 138.011 71.1352C138.453 71.5854 138.803 72.1201 139.042 72.7086C139.28 73.297 139.402 73.9277 139.4 74.5643C139.398 75.201 139.273 75.8309 139.031 76.4181C138.79 77.0052 138.437 77.5379 137.992 77.9855Z" fill="#FFAA7A"/>
<path d="M128.173 79.4562L129.833 81.1468L124.3 86.7823L122.64 85.0917L128.173 79.4562Z" fill="#FFAA7A"/>
<path d="M138.478 70.6581C137.459 69.6227 136.078 69.0413 134.639 69.0413C133.199 69.0413 131.819 69.6227 130.8 70.6581L124.686 76.8851C124.558 77.0159 124.486 77.1933 124.486 77.3783C124.486 77.5633 124.558 77.7407 124.686 77.8715C124.815 78.0023 124.989 78.0758 125.171 78.0758C125.352 78.0758 125.526 78.0023 125.655 77.8715L129.106 74.3559L134.848 80.2038L124.388 90.8587C123.188 92.0814 121.511 93.3325 119.57 94.7816C117.613 96.2431 115.392 97.8995 113.09 99.9496C111.249 101.588 109.062 103.558 106.593 105.804C106.524 105.865 106.467 105.939 106.427 106.021C106.386 106.104 106.362 106.195 106.356 106.287C106.35 106.379 106.363 106.472 106.392 106.56C106.422 106.647 106.468 106.728 106.529 106.797C106.589 106.866 106.663 106.922 106.745 106.962C106.827 107.002 106.916 107.025 107.007 107.029C107.098 107.034 107.188 107.02 107.274 106.988C107.359 106.956 107.438 106.908 107.504 106.845C109.97 104.603 112.152 102.636 113.991 100.999C116.249 98.9891 118.443 97.351 120.38 95.9063C122.366 94.4217 124.084 93.1416 125.356 91.8431L138.478 78.4789C139.495 77.4409 140.066 76.0346 140.066 74.5685C140.066 73.1024 139.495 71.6961 138.478 70.6581ZM137.51 77.4925L135.816 79.2174L130.075 73.3695L131.768 71.6445C132.145 71.2606 132.593 70.956 133.085 70.7482C133.578 70.5403 134.106 70.4334 134.639 70.4334C135.172 70.4334 135.7 70.5403 136.193 70.7482C136.685 70.956 137.133 71.2606 137.51 71.6445C137.887 72.0285 138.186 72.4844 138.39 72.9861C138.594 73.4878 138.699 74.0255 138.699 74.5685C138.699 75.1115 138.594 75.6492 138.39 76.1509C138.186 76.6526 137.887 77.1085 137.51 77.4925Z" fill="#413B38"/>
<path d="M104.718 107.511L103.481 108.641C103.354 108.766 103.279 108.937 103.272 109.118C103.266 109.299 103.329 109.475 103.448 109.609C103.567 109.744 103.732 109.826 103.909 109.839C104.086 109.851 104.261 109.793 104.397 109.677L105.632 108.548C105.7 108.487 105.756 108.413 105.796 108.33C105.836 108.247 105.859 108.157 105.865 108.065C105.87 107.973 105.858 107.881 105.828 107.794C105.798 107.706 105.752 107.626 105.691 107.557C105.631 107.489 105.557 107.433 105.476 107.393C105.394 107.353 105.305 107.331 105.214 107.326C105.124 107.322 105.033 107.336 104.948 107.367C104.863 107.398 104.785 107.447 104.718 107.509V107.511Z" fill="#413B38"/>
<path d="M101.704 110.268L99.8651 111.959C99.6074 112.216 99.2604 112.359 98.8996 112.358C98.5387 112.356 98.1931 112.209 97.938 111.949C97.6828 111.689 97.5386 111.337 97.5367 110.97C97.5349 110.602 97.6755 110.249 97.9281 109.986C100.589 106.988 105.657 101.252 109.722 96.5153C111.735 94.171 113.361 91.9104 114.796 89.9161C116.219 87.9385 117.447 86.2311 118.648 85.0083L123.323 80.2461C123.39 80.1821 123.444 80.1051 123.481 80.0196C123.519 79.934 123.538 79.8417 123.54 79.7482C123.541 79.6547 123.524 79.5618 123.49 79.4751C123.455 79.3884 123.404 79.3096 123.339 79.2435C123.274 79.1774 123.197 79.1253 123.112 79.0903C123.026 79.0553 122.935 79.038 122.843 79.0397C122.752 79.0413 122.661 79.0617 122.577 79.0997C122.493 79.1377 122.418 79.1925 122.355 79.2608L117.678 84.0231C116.404 85.3208 115.147 87.0685 113.691 89.0919C112.272 91.0639 110.662 93.2986 108.691 95.5986C104.631 100.328 99.5681 106.057 96.9123 109.052C96.4391 109.585 96.1867 110.283 96.2079 111.001L94.2326 113.045C93.8953 113.405 93.7105 113.886 93.7183 114.384C93.726 114.882 93.9257 115.356 94.2741 115.705C94.6225 116.054 95.0918 116.25 95.5805 116.249C96.0692 116.249 96.5382 116.053 96.8861 115.703L98.8097 113.708C98.8563 113.711 98.9029 113.715 98.9494 113.715C99.6277 113.716 100.282 113.459 100.785 112.995L102.624 111.306C102.754 111.181 102.832 111.009 102.839 110.826C102.847 110.644 102.784 110.466 102.664 110.33C102.544 110.194 102.377 110.112 102.198 110.101C102.019 110.089 101.843 110.15 101.707 110.269L101.704 110.268ZM95.9102 114.723C95.8654 114.772 95.8115 114.811 95.7515 114.839C95.6916 114.866 95.6269 114.881 95.5612 114.883C95.4955 114.884 95.4302 114.872 95.3691 114.847C95.3081 114.823 95.2525 114.786 95.2056 114.739C95.1588 114.692 95.1217 114.636 95.0965 114.574C95.0713 114.512 95.0585 114.446 95.0589 114.379C95.0592 114.312 95.0728 114.246 95.0987 114.185C95.1246 114.123 95.1624 114.068 95.2097 114.021L96.6838 112.496C96.8684 112.774 97.1023 113.015 97.3736 113.205L95.9102 114.723Z" fill="#413B38"/>
<path d="M120.743 90.9033C120.126 91.3927 119.458 91.8969 118.826 92.3692C118.751 92.4227 118.688 92.4907 118.64 92.5693C118.592 92.6479 118.559 92.7355 118.545 92.827C118.53 92.9185 118.534 93.0121 118.555 93.1022C118.576 93.1924 118.615 93.2773 118.669 93.352C118.723 93.4267 118.791 93.4897 118.869 93.5373C118.947 93.585 119.033 93.6163 119.124 93.6294C119.214 93.6425 119.305 93.6373 119.394 93.6139C119.482 93.5905 119.564 93.5494 119.637 93.4931C120.276 93.0148 120.953 92.5035 121.583 92.0041C121.727 91.8904 121.82 91.7234 121.842 91.5398C121.865 91.3562 121.814 91.1711 121.703 91.0251C121.591 90.8791 121.427 90.7843 121.247 90.7614C121.067 90.7386 120.885 90.7896 120.742 90.9033H120.743Z" fill="#413B38"/>
<path d="M121.957 85.0972C121.957 85.1888 121.974 85.2795 122.009 85.3641C122.043 85.4487 122.094 85.5255 122.157 85.5902L123.818 87.2813C123.881 87.3461 123.957 87.3975 124.04 87.4326C124.123 87.4676 124.212 87.4857 124.302 87.4857C124.392 87.4857 124.481 87.4676 124.564 87.4326C124.647 87.3975 124.722 87.3461 124.786 87.2813L130.319 81.645C130.383 81.5802 130.434 81.5033 130.468 81.4187C130.503 81.3341 130.52 81.2434 130.52 81.1518C130.52 81.0601 130.503 80.9694 130.468 80.8848C130.434 80.8002 130.383 80.7233 130.319 80.6586L128.66 78.9679C128.596 78.9031 128.521 78.8517 128.437 78.8166C128.354 78.7815 128.265 78.7634 128.175 78.7634C128.085 78.7634 127.996 78.7815 127.913 78.8166C127.83 78.8517 127.755 78.9031 127.691 78.9679L122.157 84.6042C122.094 84.6689 122.043 84.7457 122.009 84.8303C121.974 84.9149 121.957 85.0056 121.957 85.0972ZM128.175 80.4473L128.867 81.152L124.302 85.8022L123.609 85.0972L128.175 80.4473Z" fill="#413B38"/>
<g clip-path="url(#clip5_2_229)">
<path d="M491.021 411.059C490.145 411.226 489.435 411.556 488.922 412.007C488.767 412.349 488.451 412.96 488.451 413.36C488.451 414.857 490.007 416.066 491.928 415.701C492.732 415.549 493.707 414.949 494.296 414.367C494.697 413.636 494.933 412.713 494.933 411.587C494.933 411.587 492.941 410.695 491.021 411.059Z" fill="#BD96E4"/>
<path d="M488.687 413.125C488.687 412.724 488.768 412.349 488.922 412.007C488.312 412.544 487.98 413.254 487.98 414.067C487.98 415.564 489.536 416.772 491.457 416.408C492.63 416.185 493.666 415.514 494.296 414.367C493.707 414.949 492.967 415.313 492.163 415.466C490.243 415.83 488.687 414.622 488.687 413.125Z" fill="#9D66D6"/>
<path d="M480.193 405.947C479.316 406.114 478.607 406.444 478.094 406.895C477.939 407.237 477.623 407.848 477.623 408.248C477.623 409.745 479.179 410.954 481.099 410.589C481.904 410.437 482.879 409.838 483.468 409.255C483.869 408.524 484.105 407.601 484.105 406.475C484.105 406.475 482.113 405.583 480.193 405.947Z" fill="#BD96E4"/>
<path d="M477.858 408.013C477.858 407.612 477.939 407.237 478.094 406.895C477.483 407.432 477.152 408.142 477.152 408.955C477.152 410.452 478.708 411.66 480.628 411.296C481.801 411.073 482.838 410.403 483.468 409.255C482.879 409.838 482.139 410.201 481.335 410.354C479.415 410.718 477.858 409.51 477.858 408.013Z" fill="#9D66D6"/>
<path d="M494.033 397.42L485.005 393.158C484.939 393.126 484.874 393.104 484.811 393.088L484.623 398.214L494.933 402.521V398.745C494.933 398.25 494.528 397.653 494.033 397.42Z" fill="#BD96E4"/>
<path d="M484.811 393.088C484.409 392.987 484.105 393.204 484.105 393.633V398.685L494.933 403.796V402.521L484.811 397.743V393.088Z" fill="#9D66D6"/>
<path d="M488.609 416.082C487.985 415.565 487.627 414.831 487.627 414.067C487.627 412.819 488.339 411.758 489.582 411.155C489.758 411.069 489.969 411.143 490.054 411.318C490.139 411.494 490.066 411.705 489.89 411.79C488.886 412.278 488.333 413.086 488.333 414.067C488.333 414.628 488.591 415.15 489.06 415.538C489.662 416.037 490.512 416.227 491.391 416.06C493.322 415.694 494.5 414.118 494.576 411.824C494.03 411.619 492.521 411.134 491.087 411.406C490.896 411.443 490.711 411.317 490.674 411.125C490.638 410.933 490.764 410.748 490.956 410.712C492.392 410.439 493.842 410.821 494.58 411.074V404.02L484.458 399.242V406.475C484.458 407.929 484.09 409.132 483.364 410.053C482.707 410.886 481.784 411.436 480.694 411.643C479.608 411.849 478.546 411.604 477.781 410.97C477.156 410.453 476.798 409.719 476.798 408.955C476.798 407.707 477.511 406.646 478.754 406.043C478.929 405.957 479.141 406.031 479.226 406.206C479.311 406.382 479.238 406.593 479.062 406.678C478.058 407.166 477.505 407.974 477.505 408.955C477.505 409.516 477.763 410.038 478.231 410.426C478.834 410.925 479.683 411.116 480.562 410.949C482.493 410.582 483.672 409.006 483.748 406.713C483.202 406.508 481.693 406.022 480.259 406.295C480.067 406.331 479.882 406.205 479.846 406.013C479.81 405.822 479.936 405.637 480.127 405.6C481.564 405.328 483.013 405.709 483.752 405.962V393.633C483.752 393.29 483.896 393.002 484.149 392.842C484.424 392.668 484.791 392.666 485.156 392.838L487.715 394.047C487.892 394.13 487.967 394.34 487.884 394.517C487.801 394.693 487.59 394.769 487.414 394.686L484.854 393.477C484.69 393.4 484.575 393.408 484.527 393.439C484.465 393.478 484.458 393.588 484.458 393.633V398.461L494.58 403.239V398.745C494.58 398.385 494.254 397.915 493.882 397.739L488.691 395.289C488.515 395.205 488.44 394.995 488.523 394.818C488.606 394.642 488.817 394.567 488.993 394.65L494.184 397.1C494.802 397.392 495.286 398.115 495.286 398.745V411.587C495.286 413.04 494.918 414.244 494.192 415.165C493.535 415.998 492.612 416.548 491.522 416.755C490.436 416.961 489.374 416.716 488.609 416.082Z" fill="#413B38"/>
</g>
<g clip-path="url(#clip6_2_229)">
<path d="M280.193 317.567C252.179 317.567 229.47 294.858 229.47 266.844V224.236C229.47 196.223 252.179 173.513 280.193 173.513C308.207 173.513 330.916 196.223 330.916 224.236V266.844C330.916 294.858 308.207 317.567 280.193 317.567Z" fill="#FFEF63"/>
<path d="M229.87 217.837C229.607 219.933 229.47 222.069 229.47 224.236V266.844C229.47 294.858 252.179 317.567 280.193 317.567C297.233 317.567 312.31 309.164 321.508 296.276L229.87 217.837Z" fill="#FFC978"/>
<path d="M280.193 184.382C277.192 184.382 274.758 181.949 274.758 178.948C274.758 175.946 277.192 173.513 280.193 173.513C252.179 173.513 229.47 196.223 229.47 224.236V266.844C229.47 294.858 252.179 317.567 280.193 317.567C293.038 317.567 304.767 312.79 313.703 304.918L313.709 304.891L251.999 252.431L280.193 184.382Z" fill="#FE6E31"/>
<path d="M280.193 264.109C302.214 264.109 320.065 246.258 320.065 224.237C320.065 202.216 302.214 184.364 280.193 184.364C258.172 184.364 240.32 202.216 240.32 224.237C240.32 246.258 258.172 264.109 280.193 264.109Z" fill="#FFDFCF"/>
<path d="M263.593 252.431C248.047 236.885 248.047 211.589 263.593 196.042C269.891 189.744 277.789 185.999 285.991 184.803C273.947 183.048 261.248 186.794 251.999 196.042C236.453 211.589 236.453 236.885 251.999 252.431C261.248 261.679 273.947 265.425 285.991 263.67C277.789 262.474 269.891 258.729 263.593 252.431Z" fill="#FFCEBF"/>
<path d="M257.135 242.059C261.834 242.059 265.643 239.026 265.643 235.283C265.643 231.541 261.834 228.508 257.135 228.508C252.436 228.508 248.626 231.541 248.626 235.283C248.626 239.026 252.436 242.059 257.135 242.059Z" fill="#FDA0C1"/>
<path d="M303.253 242.059C307.952 242.059 311.761 239.026 311.761 235.283C311.761 231.541 307.952 228.508 303.253 228.508C298.554 228.508 294.744 231.541 294.744 235.283C294.744 239.026 298.554 242.059 303.253 242.059Z" fill="#FDA0C1"/>
<path d="M262.094 230.935C260.893 230.935 259.92 229.962 259.92 228.761V225.283C259.92 224.082 260.893 223.109 262.094 223.109C263.294 223.109 264.268 224.082 264.268 225.283V228.761C264.268 229.962 263.294 230.935 262.094 230.935Z" fill="black"/>
<path d="M298.293 230.935C297.092 230.935 296.119 229.962 296.119 228.761V225.283C296.119 224.082 297.092 223.109 298.293 223.109C299.493 223.109 300.466 224.082 300.466 225.283V228.761C300.466 229.962 299.493 230.935 298.293 230.935Z" fill="black"/>
<path d="M280.194 233.005C277.736 233.005 275.4 231.941 273.783 230.086C272.994 229.181 273.088 227.808 273.993 227.019C274.899 226.23 276.271 226.324 277.06 227.229C277.851 228.137 278.993 228.658 280.194 228.658C281.394 228.658 282.536 228.137 283.327 227.23C284.115 226.324 285.489 226.23 286.394 227.019C287.299 227.807 287.393 229.181 286.605 230.086C284.988 231.941 282.651 233.005 280.194 233.005Z" fill="black"/>
<path d="M280.194 171.339C251.026 171.339 227.296 195.069 227.296 224.236V266.844C227.296 296.012 251.026 319.741 280.194 319.741C293.504 319.741 305.681 314.797 314.989 306.652C315.096 306.572 315.197 306.483 315.289 306.385C326.202 296.688 333.091 282.557 333.091 266.844V224.236C333.091 195.069 309.361 171.339 280.194 171.339ZM328.743 266.844C328.743 280.657 322.944 293.141 313.653 301.99L299.992 290.376C299.077 289.598 297.705 289.71 296.928 290.625C296.15 291.539 296.261 292.911 297.176 293.689L310.335 304.875C302.049 311.456 291.573 315.393 280.194 315.393C253.423 315.393 231.644 293.614 231.644 266.844V224.236C231.644 197.466 253.423 175.687 280.194 175.687C306.964 175.687 328.743 197.466 328.743 224.236V266.844Z" fill="black"/>
<path d="M280.193 182.19C269.779 182.19 259.78 186.041 252.038 193.032C244.354 199.972 239.509 209.427 238.395 219.653C238.265 220.847 239.127 221.92 240.32 222.05C241.514 222.182 242.587 221.318 242.717 220.124C244.802 200.977 260.914 186.538 280.193 186.538C284.658 186.538 288.943 187.32 292.921 188.751C296.617 193.074 297.581 199.004 295.427 204.275C293 210.216 286.192 213.074 280.252 210.647C275.721 208.796 273.541 203.604 275.392 199.073C276.066 197.425 277.341 196.138 278.982 195.449C280.624 194.76 282.436 194.75 284.084 195.424C285.295 195.919 286.241 196.856 286.748 198.062C287.254 199.268 287.261 200.6 286.766 201.811C286.414 202.672 285.747 203.345 284.889 203.705C283.782 204.17 283.262 205.444 283.727 206.551C284.191 207.658 285.466 208.179 286.572 207.714C288.501 206.904 289.999 205.392 290.79 203.455C291.724 201.169 291.712 198.656 290.756 196.379C289.8 194.102 288.015 192.334 285.728 191.4C283.005 190.287 280.012 190.302 277.299 191.44C274.587 192.579 272.48 194.706 271.367 197.429C268.61 204.179 271.857 211.914 278.607 214.672C280.58 215.478 282.622 215.86 284.633 215.86C290.936 215.859 296.924 212.106 299.451 205.92C301.306 201.381 301.366 196.463 299.781 192.037C310.632 198.663 317.892 210.618 317.892 224.237C317.892 245.024 300.98 261.936 280.193 261.936C272.097 261.936 264.55 259.379 258.368 254.992L253.407 250.775C253.395 250.765 253.382 250.756 253.37 250.746C247.611 244.924 243.722 237.208 242.735 228.517C242.6 227.324 241.524 226.467 240.33 226.602C239.137 226.737 238.28 227.814 238.416 229.007C239.476 238.352 243.657 247.041 250.265 253.74C250.359 253.865 250.467 253.982 250.591 254.087L250.711 254.189C251.165 254.636 251.629 255.073 252.105 255.501C253.16 256.45 254.259 257.338 255.392 258.169L290.529 288.039C290.937 288.386 291.438 288.556 291.936 288.556C292.551 288.556 293.163 288.296 293.593 287.79C294.371 286.876 294.26 285.504 293.345 284.726L270.242 265.086C273.474 265.874 276.812 266.283 280.194 266.283C303.378 266.283 322.24 247.421 322.24 224.237C322.24 201.052 303.378 182.19 280.193 182.19Z" fill="black"/>
</g>



<g xmlns="http://www.w3.org/2000/svg" clip-path="url(#clip0_12_3)">
<path d="M244.203 347.33C245.809 349.47 246.613 351.322 246.617 352.887C246.621 354.452 245.865 355.869 244.348 357.136C243.152 358.068 241.664 358.537 240.154 358.457C238.95 358.414 237.752 358.259 236.576 357.993C235.429 357.732 234.261 357.577 233.086 357.529C232.568 357.495 232.049 357.55 231.55 357.694C229.999 358.449 229.223 360.209 229.223 362.975C229.223 365.245 229.748 368.202 230.799 371.849C230.937 372.304 231.012 372.776 231.02 373.251C231.037 373.429 231.001 373.607 230.919 373.764C230.836 373.922 230.71 374.051 230.555 374.137L229.101 374.9C228.971 374.981 228.822 375.025 228.67 375.029C228.282 375.029 227.968 374.638 227.728 373.856C226.576 369.403 226 365.698 226 362.741C226 358.081 227.466 355.235 230.398 354.202C230.642 350.035 231.849 347.054 234.017 345.258C235.133 344.223 236.574 343.617 238.089 343.545C240.241 343.513 242.279 344.775 244.203 347.33ZM234.144 353.955C235.96 354.19 237.272 354.386 238.083 354.542C238.811 354.691 239.551 354.77 240.294 354.777C240.944 354.785 241.571 354.534 242.039 354.079C242.28 353.855 242.471 353.583 242.6 353.279C242.73 352.976 242.794 352.648 242.789 352.318C242.69 351.353 242.305 350.441 241.684 349.701C240.468 348.011 239.305 347.16 238.193 347.16C237.547 347.175 236.927 347.425 236.448 347.864C234.897 349.131 234.121 351.037 234.121 353.58L234.144 353.955Z" fill="#F36E35"/>
<path d="M270.568 354.178H271.243C271.598 354.178 271.772 354.765 271.772 355.874V356.08C271.772 357.289 271.598 357.893 271.243 357.893H270.708C269.698 357.943 268.694 357.728 267.791 357.269C266.889 356.81 266.12 356.124 265.559 355.276C263.674 357.408 261.021 358.488 257.601 358.515C255.577 358.6 253.562 358.21 251.713 357.377C251.419 357.258 251.165 357.053 250.986 356.789C250.807 356.525 250.71 356.212 250.707 355.892V354.061C250.707 353.151 251.149 352.887 252.039 353.357C253.736 354.239 255.611 354.719 257.519 354.759C261.378 354.759 263.259 353.605 263.162 351.297C262.902 348.118 262.431 344.959 261.754 341.843C261.592 341.033 261.789 340.534 262.336 340.34L264.035 339.754C264.698 339.536 265.082 339.859 265.198 340.728C265.664 344.71 266.135 347.852 266.612 350.153C267.159 352.84 268.478 354.182 270.568 354.178Z" fill="#F36E35"/>
<path d="M286.292 357.893H285.269C282.748 357.893 280.935 357.013 279.829 355.252C278.138 357.013 275.507 357.893 271.935 357.893H271.016C270.073 357.893 269.602 357.277 269.602 356.039V355.892C269.602 354.754 270.073 354.178 271.016 354.178H271.877C276.251 354.178 278.474 352.948 278.544 350.487L278.602 348.075C278.602 347.277 278.991 346.901 279.69 346.901H280.812C281.464 346.901 281.766 347.441 281.714 348.533L281.609 350.616C281.501 353.003 282.761 354.198 285.391 354.202H286.292C286.647 354.202 286.822 354.789 286.822 355.898V356.103C286.822 357.289 286.647 357.893 286.292 357.893ZM279.521 335.798L279.893 336.127C281.499 337.57 281.499 338.991 279.893 340.387L279.172 341.004C279.101 341.082 279.015 341.144 278.919 341.187C278.822 341.23 278.718 341.252 278.613 341.252C278.508 341.252 278.404 341.23 278.308 341.187C278.212 341.144 278.126 341.082 278.055 341.004L275.891 339.014C275.797 338.948 275.721 338.86 275.668 338.758C275.615 338.656 275.588 338.542 275.588 338.427C275.588 338.312 275.615 338.199 275.668 338.096C275.721 337.994 275.797 337.906 275.891 337.84L277.939 335.751C278.037 335.634 278.16 335.541 278.299 335.478C278.438 335.416 278.589 335.386 278.741 335.39C278.893 335.395 279.042 335.434 279.177 335.504C279.312 335.575 279.43 335.675 279.521 335.798V335.798Z" fill="#F36E35"/>
<path d="M301.348 357.893H300.324C297.799 357.893 295.986 357.013 294.885 355.252C293.194 357.013 290.562 357.893 286.991 357.893H286.066C285.129 357.893 284.658 357.277 284.658 356.039V355.892C284.658 354.754 285.129 354.178 286.066 354.178H286.927C291.301 354.178 293.524 352.948 293.593 350.487L293.657 348.075C293.681 347.293 294.041 346.901 294.739 346.901H295.862C296.52 346.901 296.816 347.441 296.764 348.533L296.659 350.616C296.554 353.003 297.817 354.198 300.446 354.202H301.348C301.697 354.202 301.877 354.789 301.877 355.898V356.103C301.877 357.289 301.697 357.893 301.348 357.893ZM291.679 362.042L292.052 362.371C293.657 363.815 293.657 365.235 292.052 366.631L291.33 367.218C291.259 367.296 291.173 367.358 291.077 367.4C290.98 367.442 290.877 367.464 290.772 367.464C290.667 367.464 290.563 367.442 290.467 367.4C290.371 367.358 290.285 367.296 290.213 367.218L288.043 365.229C287.949 365.164 287.871 365.076 287.818 364.974C287.764 364.872 287.736 364.758 287.736 364.642C287.736 364.526 287.764 364.412 287.818 364.31C287.871 364.208 287.949 364.12 288.043 364.055L290.12 361.978C290.22 361.866 290.343 361.778 290.48 361.719C290.618 361.661 290.766 361.634 290.915 361.64C291.064 361.646 291.21 361.685 291.342 361.755C291.474 361.824 291.589 361.923 291.679 362.042V362.042Z" fill="#F36E35"/>
<path d="M300.895 354.178H302.058C302.992 354.207 303.913 353.949 304.699 353.439C305.929 352.602 306.541 349.851 306.537 345.188C306.505 340.564 306.19 335.946 305.595 331.362C305.595 331.228 305.595 331.105 305.595 330.992C305.595 330.358 305.851 330.035 306.369 330.023L307.445 330C307.613 329.99 307.781 330.014 307.939 330.071C308.097 330.129 308.242 330.218 308.364 330.334C308.487 330.45 308.585 330.59 308.652 330.746C308.719 330.901 308.753 331.069 308.754 331.238C309.402 335.389 309.771 339.579 309.859 343.779C309.859 349.601 309.122 353.425 307.649 355.252C307.005 356.096 306.174 356.775 305.222 357.234C304.269 357.692 303.223 357.918 302.169 357.893H300.877C299.935 357.893 299.469 357.277 299.469 356.039V355.892C299.487 354.754 299.952 354.178 300.895 354.178Z" fill="#F36E35"/>
<path d="M321.739 354.096C325.691 353.889 327.667 352.715 327.667 350.575C327.643 349.446 327.326 348.343 326.747 347.377C325.584 345.32 324.035 343.513 322.186 342.054C321.628 341.616 321.349 341.225 321.349 340.88C321.352 340.747 321.394 340.619 321.471 340.511L322.634 338.75C322.713 338.61 322.825 338.491 322.96 338.405C323.095 338.319 323.249 338.268 323.408 338.257C323.751 338.286 324.072 338.44 324.31 338.691C328.754 342.459 330.977 346.248 330.977 350.059C330.977 350.387 330.977 350.716 330.936 351.045C330.471 355.556 327.368 357.868 321.628 357.981H320.936C319.293 358.006 317.653 357.852 316.043 357.523C315.685 357.489 315.353 357.315 315.121 357.037C314.888 356.76 314.772 356.401 314.798 356.039V354.284C314.782 354.162 314.795 354.037 314.835 353.921C314.875 353.804 314.941 353.699 315.029 353.613C315.116 353.527 315.223 353.463 315.339 353.425C315.456 353.388 315.579 353.379 315.7 353.398C315.878 353.399 316.055 353.418 316.229 353.457C317.898 353.824 319.596 354.038 321.302 354.096H321.739Z" fill="#F36E35"/>
</g>
<defs>
<filter id="filter0_d_2_229" x="79.9709" y="86.7537" width="393.826" height="392.899" filterUnits="userSpaceOnUse" color-interpolation-filters="sRGB">
<feFlood flood-opacity="0" result="BackgroundImageFix"/>
<feColorMatrix in="SourceAlpha" type="matrix" values="0 0 0 0 0 0 0 0 0 0 0 0 0 0 0 0 0 0 127 0" result="hardAlpha"/>
<feMorphology radius="4" operator="erode" in="SourceAlpha" result="effect1_dropShadow_2_229"/>
<feOffset dy="12"/>
<feGaussianBlur stdDeviation="13.5"/>
<feColorMatrix type="matrix" values="0 0 0 0 0 0 0 0 0 0 0 0 0 0 0 0 0 0 0.2 0"/>
<feBlend mode="normal" in2="BackgroundImageFix" result="effect1_dropShadow_2_229"/>
<feBlend mode="normal" in="SourceGraphic" in2="effect1_dropShadow_2_229" result="shape"/>
</filter>
<filter id="filter1_d_2_229" x="7.76758" y="12.5508" width="538.232" height="536.377" filterUnits="userSpaceOnUse" color-interpolation-filters="sRGB">
<feFlood flood-opacity="0" result="BackgroundImageFix"/>
<feColorMatrix in="SourceAlpha" type="matrix" values="0 0 0 0 0 0 0 0 0 0 0 0 0 0 0 0 0 0 127 0" result="hardAlpha"/>
<feOffset dy="10"/>
<feGaussianBlur stdDeviation="10.5"/>
<feColorMatrix type="matrix" values="0 0 0 0 0 0 0 0 0 0 0 0 0 0 0 0 0 0 0.6 0"/>
<feBlend mode="normal" in2="BackgroundImageFix" result="effect1_dropShadow_2_229"/>
<feBlend mode="normal" in="SourceGraphic" in2="effect1_dropShadow_2_229" result="shape"/>
</filter>
<filter id="filter2_d_2_229" x="2.78259" y="340.406" width="105.768" height="105.768" filterUnits="userSpaceOnUse" color-interpolation-filters="sRGB">
<feFlood flood-opacity="0" result="BackgroundImageFix"/>
<feColorMatrix in="SourceAlpha" type="matrix" values="0 0 0 0 0 0 0 0 0 0 0 0 0 0 0 0 0 0 127 0" result="hardAlpha"/>
<feOffset dy="8"/>
<feGaussianBlur stdDeviation="6.5"/>
<feColorMatrix type="matrix" values="0 0 0 0 0 0 0 0 0 0 0 0 0 0 0 0 0 0 0.09 0"/>
<feBlend mode="normal" in2="BackgroundImageFix" result="effect1_dropShadow_2_229"/>
<feBlend mode="normal" in="SourceGraphic" in2="effect1_dropShadow_2_229" result="shape"/>
</filter>
<filter id="filter3_d_2_229" x="70.4927" y="246.725" width="106.696" height="106.696" filterUnits="userSpaceOnUse" color-interpolation-filters="sRGB">
<feFlood flood-opacity="0" result="BackgroundImageFix"/>
<feColorMatrix in="SourceAlpha" type="matrix" values="0 0 0 0 0 0 0 0 0 0 0 0 0 0 0 0 0 0 127 0" result="hardAlpha"/>
<feOffset dy="8"/>
<feGaussianBlur stdDeviation="6.5"/>
<feColorMatrix type="matrix" values="0 0 0 0 0 0 0 0 0 0 0 0 0 0 0 0 0 0 0.09 0"/>
<feBlend mode="normal" in2="BackgroundImageFix" result="effect1_dropShadow_2_229"/>
<feBlend mode="normal" in="SourceGraphic" in2="effect1_dropShadow_2_229" result="shape"/>
</filter>
<filter id="filter4_d_2_229" x="54.7246" y="38.029" width="128.029" height="126.174" filterUnits="userSpaceOnUse" color-interpolation-filters="sRGB">
<feFlood flood-opacity="0" result="BackgroundImageFix"/>
<feColorMatrix in="SourceAlpha" type="matrix" values="0 0 0 0 0 0 0 0 0 0 0 0 0 0 0 0 0 0 127 0" result="hardAlpha"/>
<feOffset dy="8"/>
<feGaussianBlur stdDeviation="6.5"/>
<feColorMatrix type="matrix" values="0 0 0 0 0 0 0 0 0 0 0 0 0 0 0 0 0 0 0.09 0"/>
<feBlend mode="normal" in2="BackgroundImageFix" result="effect1_dropShadow_2_229"/>
<feBlend mode="normal" in="SourceGraphic" in2="effect1_dropShadow_2_229" result="shape"/>
</filter>
<filter id="filter5_d_2_229" x="444.29" y="374.725" width="81.6522" height="81.6522" filterUnits="userSpaceOnUse" color-interpolation-filters="sRGB">
<feFlood flood-opacity="0" result="BackgroundImageFix"/>
<feColorMatrix in="SourceAlpha" type="matrix" values="0 0 0 0 0 0 0 0 0 0 0 0 0 0 0 0 0 0 127 0" result="hardAlpha"/>
<feOffset dy="8"/>
<feGaussianBlur stdDeviation="6.5"/>
<feColorMatrix type="matrix" values="0 0 0 0 0 0 0 0 0 0 0 0 0 0 0 0 0 0 0.09 0"/>
<feBlend mode="normal" in2="BackgroundImageFix" result="effect1_dropShadow_2_229"/>
<feBlend mode="normal" in="SourceGraphic" in2="effect1_dropShadow_2_229" result="shape"/>
</filter>
<filter id="filter6_d_2_229" x="203.13" y="456.348" width="121.536" height="120.609" filterUnits="userSpaceOnUse" color-interpolation-filters="sRGB">
<feFlood flood-opacity="0" result="BackgroundImageFix"/>
<feColorMatrix in="SourceAlpha" type="matrix" values="0 0 0 0 0 0 0 0 0 0 0 0 0 0 0 0 0 0 127 0" result="hardAlpha"/>
<feOffset dy="8"/>
<feGaussianBlur stdDeviation="6.5"/>
<feColorMatrix type="matrix" values="0 0 0 0 0 0 0 0 0 0 0 0 0 0 0 0 0 0 0.09 0"/>
<feBlend mode="normal" in2="BackgroundImageFix" result="effect1_dropShadow_2_229"/>
<feBlend mode="normal" in="SourceGraphic" in2="effect1_dropShadow_2_229" result="shape"/>
</filter>
<filter id="filter7_d_2_229" x="341.332" y="0" width="109.478" height="108.551" filterUnits="userSpaceOnUse" color-interpolation-filters="sRGB">
<feFlood flood-opacity="0" result="BackgroundImageFix"/>
<feColorMatrix in="SourceAlpha" type="matrix" values="0 0 0 0 0 0 0 0 0 0 0 0 0 0 0 0 0 0 127 0" result="hardAlpha"/>
<feOffset dy="8"/>
<feGaussianBlur stdDeviation="6.5"/>
<feColorMatrix type="matrix" values="0 0 0 0 0 0 0 0 0 0 0 0 0 0 0 0 0 0 0.09 0"/>
<feBlend mode="normal" in2="BackgroundImageFix" result="effect1_dropShadow_2_229"/>
<feBlend mode="normal" in="SourceGraphic" in2="effect1_dropShadow_2_229" result="shape"/>
</filter>
<filter id="filter8_d_2_229" x="373.797" y="161.391" width="108.551" height="109.478" filterUnits="userSpaceOnUse" color-interpolation-filters="sRGB">
<feFlood flood-opacity="0" result="BackgroundImageFix"/>
<feColorMatrix in="SourceAlpha" type="matrix" values="0 0 0 0 0 0 0 0 0 0 0 0 0 0 0 0 0 0 127 0" result="hardAlpha"/>
<feOffset dy="8"/>
<feGaussianBlur stdDeviation="6.5"/>
<feColorMatrix type="matrix" values="0 0 0 0 0 0 0 0 0 0 0 0 0 0 0 0 0 0 0.09 0"/>
<feBlend mode="normal" in2="BackgroundImageFix" result="effect1_dropShadow_2_229"/>
<feBlend mode="normal" in="SourceGraphic" in2="effect1_dropShadow_2_229" result="shape"/>
</filter>
<filter id="filter9_d_2_229" x="0" y="140.986" width="83.5072" height="83.5073" filterUnits="userSpaceOnUse" color-interpolation-filters="sRGB">
<feFlood flood-opacity="0" result="BackgroundImageFix"/>
<feColorMatrix in="SourceAlpha" type="matrix" values="0 0 0 0 0 0 0 0 0 0 0 0 0 0 0 0 0 0 127 0" result="hardAlpha"/>
<feOffset dy="8"/>
<feGaussianBlur stdDeviation="6.5"/>
<feColorMatrix type="matrix" values="0 0 0 0 0 0 0 0 0 0 0 0 0 0 0 0 0 0 0.09 0"/>
<feBlend mode="normal" in2="BackgroundImageFix" result="effect1_dropShadow_2_229"/>
<feBlend mode="normal" in="SourceGraphic" in2="effect1_dropShadow_2_229" result="shape"/>
</filter>
<clipPath id="clip0_2_229">
<rect width="50.087" height="50.087" fill="white" transform="translate(30.6232 359.319)"/>
</clipPath>
<clipPath id="clip1_2_229">
<rect width="49.1594" height="50.087" fill="white" transform="translate(371.957 21.6956)"/>
</clipPath>
<clipPath id="clip2_2_229">
<rect width="29.6812" height="29.6812" fill="white" transform="translate(25.9855 160.826)"/>
</clipPath>
<clipPath id="clip3_2_229">


<rect width="51.0145" height="49.1594" fill="white" transform="translate(402.566 185.87)"/>
</clipPath>
<clipPath id="clip4_2_229">
<rect width="40.8116" height="40.8116" fill="white" transform="translate(102.043 277.696)"/>
</clipPath>
<clipPath id="clip5_2_229">
<rect width="24.1159" height="24.1159" fill="white" transform="translate(473.984 392.71)"/>
</clipPath>
<clipPath id="clip6_2_229">
<rect width="148.402" height="148.402" fill="white" transform="translate(205.993 171.339)"/>
</clipPath>
</defs>
</svg>
