<svg width="60" height="59" viewBox="0 0 60 59" fill="none" xmlns="http://www.w3.org/2000/svg">
<g clip-path="url(#clip0_617_91)">
<path d="M29.7728 57.972C18.6668 57.972 9.66357 48.9688 9.66357 37.8627V20.9709C9.66357 9.86489 18.6668 0.861694 29.7728 0.861694C40.8789 0.861694 49.8821 9.86489 49.8821 20.9709V37.8627C49.8821 48.9688 40.8789 57.972 29.7728 57.972Z" fill="#FFEF63"/>
<path d="M9.82238 18.434C9.71781 19.265 9.66357 20.1117 9.66357 20.9711V37.8629C9.66357 48.9689 18.6668 57.9721 29.7728 57.9721C36.5285 57.9721 42.5058 54.6405 46.1522 49.5311L9.82238 18.434Z" fill="#FFC978"/>
<path d="M29.7728 5.17082C28.5829 5.17082 27.6183 4.20615 27.6183 3.01626C27.6183 1.82636 28.5829 0.861694 29.7728 0.861694C18.6668 0.861694 9.66357 9.86489 9.66357 20.9709V37.8627C9.66357 48.9688 18.6668 57.972 29.7728 57.972C34.8654 57.972 39.515 56.078 43.058 52.9572L43.0601 52.9465L18.5952 32.1486L29.7728 5.17082Z" fill="#FE6E31"/>
<path d="M29.7747 36.7785C38.5049 36.7785 45.5822 29.7013 45.5822 20.971C45.5822 12.2408 38.5049 5.16357 29.7747 5.16357C21.0445 5.16357 13.9672 12.2408 13.9672 20.971C13.9672 29.7013 21.0445 36.7785 29.7747 36.7785Z" fill="#FFDFCF"/>
<path d="M23.1936 32.1487C17.0302 25.9853 17.0302 15.9568 23.1936 9.79349C25.6903 7.29661 28.8215 5.81163 32.073 5.33774C27.2981 4.64184 22.2637 6.12683 18.5972 9.79349C12.4338 15.9568 12.4338 25.9853 18.5972 32.1487C22.2637 35.8152 27.2981 37.3003 32.073 36.6044C28.8215 36.1304 25.6903 34.6454 23.1936 32.1487Z" fill="#FFCEBF"/>
<path d="M20.633 28.0368C22.496 28.0368 24.0062 26.8341 24.0062 25.3506C24.0062 23.867 22.496 22.6643 20.633 22.6643C18.7701 22.6643 17.2598 23.867 17.2598 25.3506C17.2598 26.8341 18.7701 28.0368 20.633 28.0368Z" fill="#FDA0C1"/>
<path d="M38.9168 28.0368C40.7798 28.0368 42.29 26.8341 42.29 25.3506C42.29 23.867 40.7798 22.6643 38.9168 22.6643C37.0539 22.6643 35.5436 23.867 35.5436 25.3506C35.5436 26.8341 37.0539 28.0368 38.9168 28.0368Z" fill="#FDA0C1"/>
<path d="M22.6005 23.6266C22.1245 23.6266 21.7386 23.2409 21.7386 22.7648V21.3859C21.7386 20.9098 22.1245 20.524 22.6005 20.524C23.0764 20.524 23.4623 20.9098 23.4623 21.3859V22.7648C23.4623 23.2409 23.0764 23.6266 22.6005 23.6266Z" fill="black"/>
<path d="M36.95 23.6266C36.4739 23.6266 36.0881 23.2409 36.0881 22.7648V21.3859C36.0881 20.9098 36.4739 20.524 36.95 20.524C37.426 20.524 37.8118 20.9098 37.8118 21.3859V22.7648C37.8118 23.2409 37.426 23.6266 36.95 23.6266Z" fill="black"/>
<path d="M29.7746 24.4474C28.8004 24.4474 27.874 24.0256 27.2329 23.29C26.9202 22.9312 26.9576 22.3868 27.3164 22.0741C27.6754 21.7614 28.2196 21.7987 28.5324 22.1576C28.846 22.5175 29.2988 22.7239 29.7746 22.7239C30.2504 22.7239 30.7032 22.5175 31.0168 22.1577C31.3293 21.7986 31.8739 21.7614 32.2326 22.0741C32.5915 22.3867 32.629 22.9312 32.3163 23.2899C31.6752 24.0256 30.7489 24.4474 29.7746 24.4474Z" fill="black"/>
<path d="M29.7747 0C18.2112 0 8.80359 9.40757 8.80359 20.9711V37.8628C8.80359 49.4263 18.2112 58.8339 29.7747 58.8339C35.0518 58.8339 39.8793 56.8739 43.5692 53.6446C43.6119 53.6131 43.6518 53.5777 43.6882 53.5389C48.0147 49.6945 50.7457 44.0921 50.7457 37.8628V20.9711C50.7457 9.40757 41.3382 0 29.7747 0ZM49.0221 37.8628C49.0221 43.3391 46.7231 48.2884 43.0398 51.7966L37.6236 47.1923C37.2609 46.8836 36.717 46.9281 36.4089 47.2906C36.1005 47.6532 36.1446 48.1972 36.5072 48.5053L41.7243 52.9403C38.4391 55.5494 34.2859 57.1103 29.7747 57.1103C19.1616 57.1103 10.5272 48.4758 10.5272 37.8628V20.9711C10.5272 10.3581 19.1616 1.72365 29.7747 1.72365C40.3876 1.72365 49.0221 10.3581 49.0221 20.9711V37.8628Z" fill="black"/>
<path d="M29.7742 4.30176C25.6456 4.30176 21.6817 5.82834 18.6123 8.6002C15.5659 11.3514 13.6449 15.0996 13.2033 19.1541C13.1518 19.6273 13.4935 20.0526 13.9667 20.1043C14.44 20.1566 14.8653 19.8139 14.9168 19.3408C15.7436 11.7498 22.131 6.02541 29.7742 6.02541C31.5443 6.02541 33.2431 6.33555 34.8202 6.90286C36.2857 8.61651 36.6675 10.9678 35.8136 13.0574C34.8514 15.4126 32.1525 16.5458 29.7974 15.5835C28.0014 14.8495 27.1371 12.7912 27.8709 10.9951C28.1379 10.3417 28.6434 9.83134 29.2942 9.55808C29.9452 9.28494 30.6633 9.28127 31.317 9.54843C31.7971 9.74447 32.1719 10.1159 32.3728 10.5941C32.5736 11.0724 32.5762 11.6003 32.38 12.0804C32.2404 12.4219 31.9762 12.6885 31.6361 12.8313C31.1972 13.0156 30.9909 13.5206 31.1751 13.9595C31.3594 14.3984 31.8645 14.6049 32.3033 14.4205C33.0679 14.0996 33.6617 13.5 33.9755 12.7322C34.3458 11.8259 34.341 10.8297 33.962 9.92695C33.5829 9.02421 32.875 8.32315 31.9688 7.95291C30.8892 7.51177 29.7023 7.51751 28.6269 7.96899C27.5516 8.42048 26.7164 9.26369 26.2753 10.3433C25.1819 13.0192 26.4695 16.0858 29.1454 17.179C29.9277 17.4987 30.7374 17.65 31.5344 17.65C34.0335 17.6499 36.407 16.1621 37.4092 13.7094C38.1445 11.9101 38.1683 9.96016 37.5397 8.20571C41.8419 10.8326 44.7199 15.572 44.7199 20.9712C44.7199 29.2123 38.0152 35.9168 29.7742 35.9168C26.5644 35.9168 23.5726 34.9032 21.1217 33.1642L19.1548 31.4921C19.15 31.4881 19.1449 31.4847 19.1401 31.4808C16.8569 29.1726 15.3152 26.1137 14.9241 22.6679C14.8705 22.1951 14.4438 21.8553 13.9706 21.9088C13.4977 21.9625 13.1577 22.3894 13.2115 22.8624C13.6319 26.5671 15.2897 30.0119 17.9092 32.6679C17.9465 32.7172 17.9893 32.7636 18.0383 32.8053L18.0861 32.8459C18.266 33.0228 18.4502 33.1962 18.6387 33.3658C19.057 33.742 19.4925 34.0942 19.942 34.4236L33.8718 46.2654C34.0338 46.4033 34.2322 46.4706 34.4296 46.4706C34.6736 46.4706 34.9161 46.3675 35.0866 46.1669C35.395 45.8044 35.3509 45.2604 34.9882 44.9522L25.829 37.1657C27.1104 37.4782 28.4338 37.6404 29.7744 37.6404C38.966 37.6404 46.4437 30.1626 46.4437 20.9711C46.4437 11.7795 38.9657 4.30176 29.7742 4.30176Z" fill="black"/>
</g>
<defs>
<clipPath id="clip0_617_91">
<rect width="58.8339" height="58.8339" fill="white" transform="translate(0.358337)"/>
</clipPath>
</defs>
</svg>
