<svg width="50" height="49" viewBox="0 0 50 49" fill="none" xmlns="http://www.w3.org/2000/svg">
<path d="M30.0877 10.0849H20.3534L14.9929 15.4152C14.4041 16.0008 14.0732 16.7949 14.0732 17.6231V21.7514L15.5088 31.5254L14.0732 41.2993V45.1598C14.0732 46.8843 15.4791 48.2822 17.2134 48.2822H33.2278C34.9621 48.2822 36.368 46.8843 36.368 45.1598V41.2993L34.9324 31.5254L36.368 21.7514V17.6231C36.368 16.7949 36.0371 16.0008 35.4482 15.4152L30.0877 10.0849Z" fill="#25C092"/>
<path d="M35.4481 15.4152L30.0876 10.0849H27.2166L32.577 15.4152C33.1658 16.0008 33.4967 16.7949 33.4967 17.6231V45.1598C33.4967 46.8843 32.0908 48.2822 30.3566 48.2822H33.2277C34.9619 48.2822 36.3678 46.8843 36.3678 45.1598V41.2993L34.9322 31.5254L36.3678 21.7514V17.6231C36.3678 16.7949 36.0369 16.0008 35.4481 15.4152Z" fill="#76F0C4"/>
<path d="M20.3533 6.96259H30.0875V10.085H20.3533V6.96259Z" fill="#F7F6F7"/>
<path d="M27.2166 6.96246H30.0876V10.0849H27.2166V6.96246Z" fill="#E2DFE3"/>
<path d="M30.6109 6.96259H19.8299C19.2519 6.96259 18.7832 6.49661 18.7832 5.92182V2.79941C18.7832 1.64973 19.7204 0.717773 20.8766 0.717773H29.5642C30.7204 0.717773 31.6576 1.64973 31.6576 2.79941V5.92182C31.6576 6.49661 31.189 6.96259 30.6109 6.96259Z" fill="#EFF3F1"/>
<path d="M14.0732 21.7514H36.3679V41.2992H14.0732V21.7514Z" fill="#F7F6F7"/>
<path d="M33.4968 21.7514H36.3679V41.2992H33.4968V21.7514Z" fill="#E2DFE3"/>
<path d="M30.2449 30.0898H26.9431C26.7845 30.0898 26.656 29.9613 26.656 29.8027V26.501C26.656 26.1838 26.3989 25.9268 26.0818 25.9268H24.3591C24.042 25.9268 23.7849 26.1838 23.7849 26.501V29.8027C23.7849 29.9613 23.6564 30.0898 23.4978 30.0898H20.196C19.8789 30.0898 19.6218 30.3469 19.6218 30.6641V32.3867C19.6218 32.7039 19.8789 32.9609 20.196 32.9609H23.4978C23.6564 32.9609 23.7849 33.0895 23.7849 33.248V36.5498C23.7849 36.867 24.042 37.124 24.3591 37.124H26.0818C26.3989 37.124 26.656 36.867 26.656 36.5498V33.248C26.656 33.0895 26.7845 32.9609 26.9431 32.9609H30.2449C30.562 32.9609 30.8191 32.7039 30.8191 32.3867V30.6641C30.8191 30.3469 30.562 30.0898 30.2449 30.0898Z" fill="#FE6E31"/>
<path d="M26.082 25.209H24.3593C23.6469 25.209 23.0673 25.7885 23.0673 26.501V29.3721H20.1962C19.4838 29.3721 18.9042 29.9516 18.9042 30.664V32.3867C18.9042 33.0991 19.4838 33.6787 20.1962 33.6787H23.0673V36.5498C23.0673 37.2622 23.6469 37.8418 24.3593 37.8418H26.082C26.7944 37.8418 27.374 37.2622 27.374 36.5498V33.6787H30.2451C30.9575 33.6787 31.5371 33.0991 31.5371 32.3867V30.664C31.5371 29.9516 30.9575 29.3721 30.2451 29.3721H27.374V26.501C27.374 25.7885 26.7944 25.209 26.082 25.209ZM30.1015 30.8076V32.2431H26.9433C26.3892 32.2431 25.9384 32.6939 25.9384 33.248V36.4062H24.5029V33.248C24.5029 32.6939 24.0521 32.2431 23.498 32.2431H20.3398V30.8076H23.498C24.0521 30.8076 24.5029 30.3568 24.5029 29.8027V26.6445H25.9384V29.8027C25.9384 30.3568 26.3892 30.8076 26.9433 30.8076H30.1015ZM30.8055 9.78651V7.66907C31.6871 7.57213 32.3755 6.82583 32.3755 5.92173V2.79941C32.3755 1.25582 31.1144 0 29.5643 0H20.8768C19.3267 0 18.0656 1.25582 18.0656 2.79941V5.92173C18.0656 6.82593 18.754 7.57222 19.6356 7.66907V9.78651L14.4869 14.9062C13.7572 15.6317 13.3555 16.5965 13.3555 17.6232V28.6544C13.3555 29.0509 13.6767 29.3722 14.0732 29.3722C14.4697 29.3722 14.791 29.0509 14.791 28.6544V22.4692H35.6501V40.5816H14.791V32.0039C14.791 31.6074 14.4697 31.2861 14.0732 31.2861C13.6767 31.2861 13.3555 31.6074 13.3555 32.0039V45.1598C13.3555 47.2773 15.0861 49 17.2134 49H33.2278C35.3551 49 37.0857 47.2773 37.0857 45.1598V17.6232C37.0857 16.5966 36.684 15.6318 35.9544 14.9062L30.8055 9.78651ZM35.6501 45.1598C35.6501 46.4857 34.5635 47.5645 33.2277 47.5645H17.2134C15.8776 47.5645 14.791 46.4858 14.791 45.1598V42.0171H35.6501V45.1598ZM19.5011 5.92173V2.79941C19.5011 2.04738 20.1182 1.43555 20.8768 1.43555H29.5643C30.3229 1.43555 30.94 2.04738 30.94 2.79941V5.92173C30.94 6.09983 30.7924 6.24482 30.6109 6.24482H19.8301C19.6487 6.24482 19.5011 6.09983 19.5011 5.92173ZM29.37 7.68037V9.36723H21.0712V7.68037H29.37ZM35.6501 21.0336H14.791V17.6231C14.791 16.9815 15.0425 16.3782 15.499 15.9241L20.6495 10.8027H29.7916L34.9422 15.9241C35.3988 16.3782 35.6501 16.9815 35.6501 17.6231V21.0336Z" fill="#413B38"/>
</svg>
