<svg width="86" height="86" viewBox="0 0 86 86" fill="none" xmlns="http://www.w3.org/2000/svg">
<g clip-path="url(#clip0_2_210)">
<path d="M70.1482 35.8233L50.1769 15.852C46.3165 11.9916 40.0575 11.9916 36.1971 15.852L3.74406 48.3052C0.986519 51.0627 0.986519 55.5334 3.74406 58.2907L27.7095 82.2561C30.467 85.0137 34.9376 85.0137 37.695 82.2561L70.1482 49.803C74.0086 45.9427 74.0086 39.6837 70.1482 35.8233Z" fill="white"/>
<path d="M30.1962 21.8529L3.74406 48.3052C0.986519 51.0627 0.986519 55.5334 3.74406 58.2908L27.7095 82.2562C30.467 85.0137 34.9376 85.0137 37.695 82.2562L64.1475 55.8036L30.1962 21.8529Z" fill="#FDF9D8"/>
<path d="M80.3833 33.0772L52.9229 5.61686C51.1306 3.82447 48.2245 3.82447 46.4323 5.61686C44.6399 7.40925 44.6399 10.3153 46.4323 12.1075L73.8926 39.5678C75.685 41.3602 78.5911 41.3602 80.3833 39.5678C82.1757 37.7754 82.1757 34.8696 80.3833 33.0772Z" fill="#FDDC88"/>
<path d="M78.348 31.0419L66.653 19.3469L54.9583 7.65196C58.0845 6.49265 63.2072 8.44192 66.2472 10.4214C69.2873 12.4008 70.237 6.64382 71.2633 5.0246C71.5493 4.57411 71.8754 4.1379 72.2707 3.74267C75.0285 0.98496 79.4979 0.986975 82.2558 3.74418C85.013 6.50188 85.015 10.9714 82.2573 13.7292C81.8621 14.1245 81.4259 14.4505 80.9752 14.7365C79.3563 15.7632 73.5992 16.7129 75.5787 19.7529C77.5581 22.7928 79.5073 27.9157 78.348 31.0419Z" fill="#FEBD80"/>
<path d="M15.6941 38.0359C16.1359 38.0359 16.5694 37.8562 16.8818 37.5438C17.1943 37.2297 17.374 36.798 17.374 36.3561C17.374 35.9142 17.1943 35.4808 16.8818 35.1667C16.5694 34.8543 16.1361 34.6762 15.6941 34.6762C15.2507 34.6762 14.8189 34.8543 14.5048 35.1667C14.1923 35.4808 14.0143 35.9125 14.0143 36.3561C14.0143 36.7978 14.1923 37.2314 14.5048 37.5438C14.8189 37.8562 15.2507 38.0359 15.6941 38.0359Z" fill="#413B38"/>
<path d="M79.7946 17.0862C80.6195 16.7716 81.332 16.4999 81.875 16.1554C82.4858 15.768 82.9996 15.3632 83.4455 14.9173C86.8526 11.5102 86.8519 5.96522 83.4439 2.55647C80.0353 -0.851278 74.4906 -0.852117 71.0832 2.55512C70.6383 3.00007 70.2335 3.51355 69.8448 4.12546C69.5008 4.66833 69.229 5.38069 68.9144 6.20541C68.6119 6.9989 67.9135 8.83009 67.4101 9.14167C67.3674 9.12739 67.2865 9.09346 67.164 9.01368C64.7831 7.46316 59.533 4.99251 55.4608 5.77844L54.111 4.42864C52.9268 3.24447 51.3525 2.59241 49.6778 2.59241C48.0032 2.59241 46.4288 3.24447 45.2446 4.42864C44.0605 5.61282 43.4084 7.18719 43.4084 8.86183C43.4084 9.71579 43.5789 10.5432 43.9021 11.3066C40.707 11.1104 37.4455 12.2278 35.0093 14.6638L18.3904 31.2828C17.7344 31.9387 17.7344 33.0024 18.3904 33.6585C19.0463 34.3144 20.11 34.3144 20.7661 33.6585L30.1958 24.2288L36.172 30.2047C36.5 30.5328 36.9299 30.6967 37.3599 30.6967C37.7897 30.6967 38.2199 30.5326 38.5477 30.2047C39.2037 29.5488 39.2037 28.4851 38.5477 27.8292L32.5718 21.8532L37.3852 17.0397C38.9351 15.4899 40.9955 14.6364 43.1872 14.6364C45.3789 14.6364 47.4395 15.49 48.9893 17.0397L68.9604 37.0108C70.5103 38.5607 71.3637 40.6213 71.3637 42.813C71.3637 45.0046 70.5101 47.0653 68.9604 48.6149L36.5074 81.0685C34.4095 83.1665 30.9957 83.1667 28.8974 81.0685L4.93205 57.1032C2.83395 55.0051 2.83395 51.5913 4.93205 49.4932L12.6611 41.7642C13.317 41.1082 13.317 40.0445 12.6611 39.3884C12.0052 38.7323 10.9415 38.7325 10.2854 39.3884L2.5563 47.1175C-0.851612 50.5256 -0.851612 56.0707 2.5563 59.4788L26.5219 83.4442C28.2259 85.1482 30.4641 86.0002 32.7024 86.0002C34.9408 86.0002 37.1791 85.1481 38.8832 83.4442L71.3364 50.991C73.7724 48.555 74.8897 45.2934 74.6935 42.0983C75.4568 42.4214 76.2844 42.5919 77.1383 42.5919C78.813 42.5919 80.3873 41.9399 81.5717 40.7557C84.016 38.3114 84.016 34.3337 81.5717 31.8895L80.2219 30.5397C81.0078 26.4673 78.5372 21.2176 76.9866 18.8365C76.9069 18.714 76.8729 18.6332 76.8587 18.5906C77.1704 18.087 79.0011 17.3889 79.7946 17.0862ZM79.1958 38.3801C78.6463 38.9295 77.9155 39.2324 77.1383 39.2324C76.3611 39.2324 75.6305 38.9297 75.0809 38.3799L47.6206 10.9196C47.0711 10.3702 46.7685 9.63936 46.7685 8.86217C46.7685 8.08498 47.0711 7.35415 47.6207 6.80472C48.1878 6.23749 48.9331 5.9538 49.6782 5.9538C50.4233 5.9538 51.1686 6.23733 51.7356 6.80472L53.7702 8.83933C53.7704 8.83949 53.7705 8.83983 53.7709 8.84L77.1607 32.2298C77.1612 32.2303 77.1618 32.2308 77.1623 32.2313L79.1959 34.2649C80.3304 35.3995 80.3304 37.2455 79.1958 38.3801ZM74.1712 20.6698C75.3963 22.5513 76.4461 25.0174 76.8464 27.1642L58.8363 9.15427C60.9831 9.5542 63.4492 10.6042 65.3307 11.8295C66.6262 12.6729 67.7252 12.5805 68.4193 12.3549C70.4124 11.7062 71.3224 9.32005 72.0534 7.40286C72.2716 6.83059 72.519 6.18156 72.6814 5.92541C72.9358 5.52497 73.1899 5.19979 73.4585 4.93104C75.5557 2.83395 78.9694 2.83445 81.0678 4.93238C83.1659 7.03098 83.1667 10.4444 81.0696 12.5419C80.8005 12.8108 80.4755 13.0647 80.0756 13.3182C79.8183 13.4813 79.1694 13.7287 78.597 13.9471C76.6799 14.6782 74.2941 15.5883 73.6454 17.5812C73.42 18.2753 73.3278 19.3745 74.1712 20.6698Z" fill="#413B38"/>
<path d="M61.6223 49.4475C62.0521 49.4475 62.4821 49.2836 62.8101 48.9556C63.466 48.2997 63.466 47.2359 62.8101 46.5798L55.8057 39.5754C55.1498 38.9195 54.086 38.9195 53.4299 39.5754C52.774 40.2313 52.774 41.295 53.4299 41.9511L60.4344 48.9556C60.7624 49.2836 61.1923 49.4475 61.6223 49.4475Z" fill="#413B38"/>
<path d="M45.4412 47.564C44.7852 48.2199 44.7852 49.2836 45.4412 49.9397L52.4456 56.9442C52.7737 57.2722 53.2035 57.4362 53.6335 57.4362C54.0633 57.4362 54.4935 57.2722 54.8214 56.9442C55.4773 56.2883 55.4773 55.2245 54.8214 54.5684L47.8169 47.564C47.161 46.9077 46.0974 46.9077 45.4412 47.564Z" fill="#413B38"/>
<path d="M37.453 55.5522C36.7971 56.2081 36.7971 57.2719 37.453 57.9279L44.4575 64.9324C44.7855 65.2604 45.2153 65.4244 45.6453 65.4244C46.0753 65.4244 46.5053 65.2604 46.8332 64.9324C47.4891 64.2765 47.4891 63.2127 46.8332 62.5566L39.8287 55.5522C39.1727 54.8963 38.1089 54.8963 37.453 55.5522Z" fill="#413B38"/>
<path d="M29.4643 63.5408C28.8084 64.1967 28.8084 65.2604 29.4643 65.9165L36.4688 72.921C36.7968 73.249 37.2267 73.413 37.6567 73.413C38.0865 73.413 38.5167 73.249 38.8446 72.921C39.5005 72.2651 39.5005 71.2013 38.8446 70.5452L31.8401 63.5408C31.184 62.8849 30.1203 62.8849 29.4643 63.5408Z" fill="#413B38"/>
<path d="M44.1879 35.8455C44.5003 35.533 44.68 35.0997 44.68 34.6578C44.68 34.2143 44.5003 33.7825 44.1879 33.4684C43.8754 33.156 43.4421 32.9779 43.0002 32.9779C42.5584 32.9779 42.1249 33.156 41.8125 33.4684C41.4984 33.7808 41.3203 34.2142 41.3203 34.6578C41.3203 35.0995 41.4984 35.533 41.8125 35.8455C42.1249 36.1579 42.5582 36.3376 43.0002 36.3376C43.4419 36.3376 43.8754 36.1581 44.1879 35.8455Z" fill="#413B38"/>
</g>
<defs>
<clipPath id="clip0_2_210">
<rect width="86" height="86" fill="white"/>
</clipPath>
</defs>
</svg>
