<svg width="60" height="60" viewBox="0 0 60 60" fill="none" xmlns="http://www.w3.org/2000/svg">
    <g clip-path="url(#a)">
        <path d="M41.87 47.707a6.55 6.55 0 1 0 0-13.098 6.55 6.55 0 0 0 0 13.098z" fill="#D1C4E9"/>
        <path d="M41.87 34.608a6.55 6.55 0 0 0-6.084 8.972c.711-.278 1.404-.607 2.07-.988a14.847 14.847 0 0 0 10.45-2.639 6.55 6.55 0 0 0-6.435-5.345z" fill="#B0ADE2"/>
        <path d="M28.974 54.702a4.101 4.101 0 1 0 0-8.203 4.101 4.101 0 0 0 0 8.203zM51.789 17.977c-1.695-4.184-6.016-6.84-10.63-6.297a1.703 1.703 0 0 1-1.525-.64A12.315 12.315 0 0 0 30 6.41a12.315 12.315 0 0 0-9.634 4.63c-.368.46-.94.709-1.524.64-4.614-.542-8.936 2.112-10.63 6.297a1.694 1.694 0 0 1-1.175 1.004 8.077 8.077 0 0 0-6.158 7.845c0 5.03 4.531 8.776 9.378 7.972a1.709 1.709 0 0 1 1.555.567 11.332 11.332 0 0 0 10.399 3.664c.416-.071.847 0 1.204.226A12.28 12.28 0 0 0 30 41.158c2.421 0 4.68-.698 6.585-1.903a1.709 1.709 0 0 1 1.204-.226c3.934.67 7.834-.769 10.4-3.665.39-.44.972-.663 1.553-.567 4.851.806 9.38-2.946 9.38-7.971 0-3.8-2.625-6.984-6.159-7.845a1.693 1.693 0 0 1-1.174-1.004z" fill="#E1E7F0"/>
        <path d="M33.748 40.576c-4.876-.654-8.15-3.669-7.23-7.543a1.327 1.327 0 0 0-.946-1.578c-4.986-1.407-5.685-7.147-2.719-10.869.395-.496.374-1.2-.037-1.684-2.584-3.045-2.001-6.665-.063-10.139a12.41 12.41 0 0 0-2.387 2.277 1.742 1.742 0 0 1-1.558.636c-4.6-.525-8.906 2.126-10.597 6.301a1.695 1.695 0 0 1-1.174 1.004 8.077 8.077 0 0 0-6.158 7.845c0 5.03 4.531 8.775 9.377 7.972a1.665 1.665 0 0 1 1.528.535 11.332 11.332 0 0 0 10.455 3.691c.406-.07.827.01 1.176.23A12.281 12.281 0 0 0 30 41.159c1.307 0 2.566-.205 3.748-.582z" fill="#C9C3EE"/>
        <path d="M21.415 30.448c1.75 0 3.168-1.13 3.168-2.523 0-1.393-1.418-2.522-3.168-2.522-1.749 0-3.167 1.13-3.167 2.523 0 1.393 1.418 2.522 3.167 2.522zM38.585 30.448c1.75 0 3.167-1.13 3.167-2.523 0-1.393-1.418-2.522-3.167-2.522-1.75 0-3.168 1.13-3.168 2.523 0 1.393 1.418 2.522 3.168 2.522z" fill="#fff"/>
        <path d="M28.974 45.62a4.986 4.986 0 0 0-4.98 4.98c0 3.853 4.204 6.232 7.5 4.297a.879.879 0 0 0-.89-1.516c-2.136 1.254-4.852-.292-4.852-2.781a3.226 3.226 0 0 1 3.222-3.223 3.226 3.226 0 0 1 3.202 3.595.879.879 0 0 0 1.746.2c.34-2.953-1.974-5.552-4.948-5.552zm24.197-27.493a.817.817 0 0 1-.568-.48 11.023 11.023 0 0 0-3.015-4.205h4.056a.879.879 0 1 0 0-1.758h-3.55l4.062-5.89a.88.88 0 0 0-.723-1.378h-4.881a.879.879 0 0 0 0 1.757h3.207c-1.002 1.455-4.032 5.842-4.088 5.934a11.038 11.038 0 0 0-6.615-1.3.822.822 0 0 1-.736-.317A13.161 13.161 0 0 0 30 5.532a13.161 13.161 0 0 0-10.32 4.958.822.822 0 0 1-.736.317 11.015 11.015 0 0 0-3.499.147.879.879 0 1 0 .352 1.722 9.265 9.265 0 0 1 2.942-.123 2.57 2.57 0 0 0 2.313-.964A11.413 11.413 0 0 1 30 7.29c3.497 0 6.758 1.568 8.948 4.3a2.57 2.57 0 0 0 2.313.964 9.331 9.331 0 0 1 9.713 5.754c.308.76.974 1.331 1.78 1.528a7.175 7.175 0 0 1 5.488 6.99c0 4.446-4.005 7.828-8.356 7.105a2.574 2.574 0 0 0-2.355.852 10.415 10.415 0 0 1-9.595 3.38 2.586 2.586 0 0 0-1.82.35 11.466 11.466 0 0 1-12.232 0 2.585 2.585 0 0 0-1.82-.35 10.41 10.41 0 0 1-9.594-3.38 2.577 2.577 0 0 0-2.357-.851 7.167 7.167 0 0 1-5.814-1.619 7.18 7.18 0 0 1-2.541-5.486 7.175 7.175 0 0 1 5.487-6.99 2.579 2.579 0 0 0 1.78-1.529 9.294 9.294 0 0 1 3.332-4.158.88.88 0 0 0-1.002-1.444 11.047 11.047 0 0 0-3.959 4.943.817.817 0 0 1-.567.48A8.929 8.929 0 0 0 0 26.825a8.935 8.935 0 0 0 3.163 6.827 8.922 8.922 0 0 0 7.237 2.012.83.83 0 0 1 .754.283 12.157 12.157 0 0 0 11.204 3.947.832.832 0 0 1 .587.103 13.223 13.223 0 0 0 11.5 1.27c.06 4.045 3.367 7.318 7.426 7.318 4.096 0 7.428-3.332 7.428-7.428 0-1.547-.48-3.038-1.363-4.286.317-.29.621-.598.91-.925a.826.826 0 0 1 .752-.283C54.995 36.561 60 32.382 60 26.826a8.929 8.929 0 0 0-6.829-8.699zm-11.3 28.701c-3.372 0-6.042-2.953-5.627-6.357.275-.148.546-.305.811-.473a.834.834 0 0 1 .586-.103c3.172.54 6.34-.173 8.916-1.93.639.936.984 2.045.984 3.193a5.677 5.677 0 0 1-5.67 5.67zm-5.132-20.572c.88 0 1.717-.382 2.297-1.046a.879.879 0 1 0-1.325-1.155 1.289 1.289 0 0 1-1.944 0 .879.879 0 0 0-1.325 1.155 3.046 3.046 0 0 0 2.297 1.046zm5.561-2.652h3.469a.879.879 0 1 0 0-1.758h-1.795l2.378-3.449a.88.88 0 0 0-.723-1.378h-3.241a.879.879 0 1 0 0 1.758h1.567l-2.378 3.449a.88.88 0 0 0 .723 1.378zm-11.036 3.26c0-.745-.566-1.349-1.264-1.349-.698 0-1.264.604-1.264 1.348 0 .744.566 1.348 1.264 1.348.698 0 1.264-.604 1.264-1.348zm-8.003-.608c.88 0 1.718-.382 2.297-1.046a.879.879 0 1 0-1.325-1.155 1.29 1.29 0 0 1-1.943 0 .879.879 0 1 0-1.325 1.155 3.046 3.046 0 0 0 2.296 1.046z" fill="#413B38"/>
    </g>
    <defs>
        <clipPath id="a">
            <path fill="#fff" d="M0 0h60v60H0z"/>
        </clipPath>
    </defs>
</svg>
