<svg width="41" height="41" viewBox="0 0 41 41" fill="none" xmlns="http://www.w3.org/2000/svg">
    <g clip-path="url(#a)">
        <path d="M28.965 31.195c-1.491.283-2.697.844-3.57 1.612-.262.581-.8 1.62-.8 2.3 0 2.546 2.646 4.6 5.91 3.98 1.367-.26 3.026-1.278 4.027-2.268.681-1.242 1.083-2.812 1.083-4.726 0 0-3.386-1.517-6.65-.898z" fill="#BD96E4"/>
        <path d="M24.995 34.707c0-.68.138-1.319.4-1.9-1.037.913-1.6 2.12-1.6 3.502 0 2.545 2.645 4.599 5.91 3.98 1.994-.379 3.757-1.52 4.827-3.47-1.001.99-2.259 1.608-3.626 1.868-3.264.62-5.91-1.435-5.91-3.98z" fill="#9D66D6"/>
        <path d="M10.556 22.505c-1.491.283-2.698.844-3.57 1.611-.262.582-.8 1.62-.8 2.301 0 2.545 2.646 4.6 5.91 3.98 1.367-.26 3.025-1.278 4.027-2.269.681-1.242 1.083-2.812 1.083-4.726 0 0-3.386-1.517-6.65-.897z" fill="#BD96E4"/>
        <path d="M6.586 26.017c0-.681.138-1.32.4-1.9-1.037.912-1.601 2.118-1.601 3.501 0 2.545 2.646 4.6 5.91 3.98 1.995-.379 3.757-1.519 4.828-3.47-1.002.99-2.26 1.609-3.626 1.868-3.265.62-5.911-1.434-5.911-3.98z" fill="#9D66D6"/>
        <path d="M34.085 8.007 18.737.76a1.784 1.784 0 0 0-.33-.119l-.32 8.714 17.528 7.323v-6.42c0-.841-.688-1.855-1.53-2.252z" fill="#BD96E4"/>
        <path d="M18.407.642c-.684-.17-1.2.198-1.2.927v8.588l18.408 8.69V16.68L18.407 8.556V.642z" fill="#9D66D6"/>
        <path d="M24.863 39.735c-1.06-.879-1.67-2.128-1.67-3.426 0-2.121 1.212-3.926 3.325-4.951a.6.6 0 0 1 .524 1.08c-1.707.829-2.647 2.203-2.647 3.87 0 .954.438 1.842 1.235 2.502 1.024.848 2.468 1.172 3.963.888 3.283-.623 5.286-3.302 5.415-7.202-.928-.348-3.493-1.174-5.931-.71a.6.6 0 0 1-.224-1.18c2.442-.464 4.906.185 6.162.614V19.228l-17.208-8.123v12.297c0 2.471-.626 4.517-1.86 6.083-1.118 1.417-2.688 2.351-4.54 2.703-1.846.35-3.652-.066-4.953-1.144-1.061-.879-1.67-2.127-1.67-3.426 0-2.12 1.212-3.926 3.324-4.951a.6.6 0 1 1 .525 1.08c-1.707.83-2.648 2.204-2.648 3.871 0 .954.439 1.842 1.235 2.501 1.025.848 2.469 1.172 3.963.889 3.283-.623 5.287-3.302 5.416-7.202-.929-.349-3.493-1.174-5.931-.711a.6.6 0 1 1-.224-1.18c2.442-.464 4.906.185 6.161.615V1.57c0-.584.246-1.074.675-1.346.468-.297 1.093-.299 1.713-.006l4.351 2.054a.6.6 0 0 1-.513 1.086l-4.35-2.054c-.28-.132-.475-.117-.558-.065-.105.067-.116.253-.116.33v8.208L35.014 17.9v-7.64c0-.613-.555-1.412-1.187-1.71l-8.824-4.166a.6.6 0 1 1 .512-1.086l8.825 4.165c1.051.497 1.875 1.725 1.875 2.797v21.833c0 2.47-.626 4.517-1.86 6.082-1.118 1.417-2.687 2.352-4.54 2.704-1.846.35-3.651-.067-4.953-1.144z" fill="#413B38"/>
    </g>
    <defs>
        <clipPath id="a">
            <path fill="#fff" d="M0 0h41v41H0z"/>
        </clipPath>
    </defs>
</svg>
