<svg width="60" height="60" viewBox="0 0 60 60" fill="none" xmlns="http://www.w3.org/2000/svg">
    <path d="m10.312 47.56 2.002 1.975-6.877 6.976a1.406 1.406 0 0 1-2.003-1.975l6.878-6.975z" fill="#FFAA7A"/>
    <path d="M55.288 4.712a5.683 5.683 0 0 0-8.038 0L31.532 20.431c-2.953 2.953-5.934 8.088-10.73 13.574-4.976 5.692-11.246 12.656-14.12 15.834a2.46 2.46 0 0 0 .088 3.39 2.46 2.46 0 0 0 3.391.089c3.18-2.874 10.142-9.144 15.834-14.12 5.485-4.796 10.622-7.778 13.574-10.73L55.288 12.75a5.683 5.683 0 0 0 0-8.038z" fill="#FFD6BE"/>
    <path d="m55.286 12.75-2.609 2.609-8.034-8.035 2.608-2.608a5.681 5.681 0 1 1 8.035 8.034zM43.523 14.48l1.988 1.988-6.628 6.628-1.988-1.988 6.628-6.628z" fill="#FFAA7A"/>
    <path d="M55.868 4.132a6.512 6.512 0 0 0-9.198 0l-7.324 7.324a.82.82 0 1 0 1.16 1.16l4.136-4.135 6.877 6.878-12.53 12.532c-1.438 1.438-3.446 2.91-5.772 4.614-2.344 1.718-5.004 3.667-7.761 6.078a952.775 952.775 0 0 0-7.784 6.886.82.82 0 1 0 1.092 1.224c2.953-2.637 5.568-4.95 7.77-6.876 2.706-2.364 5.334-4.29 7.653-5.99 2.38-1.746 4.438-3.251 5.962-4.778L55.868 13.33a6.512 6.512 0 0 0 0-9.198zm-1.16 8.038L52.679 14.2 45.801 7.32l2.029-2.029a4.864 4.864 0 0 1 6.878 6.878zM15.426 47.476l-1.481 1.329a.82.82 0 0 0 1.097 1.219l1.48-1.328a.82.82 0 1 0-1.096-1.222v.002z" fill="#413B38"/>
    <path d="m11.816 50.719-2.203 1.988a1.64 1.64 0 0 1-2.32-2.32c3.187-3.526 9.258-10.272 14.128-15.843 2.41-2.758 4.359-5.416 6.078-7.762 1.704-2.326 3.176-4.334 4.614-5.772l5.6-5.601a.82.82 0 1 0-1.16-1.159l-5.601 5.601c-1.528 1.526-3.033 3.582-4.777 5.962-1.7 2.32-3.628 4.947-5.99 7.652-4.863 5.563-10.928 12.301-14.11 15.824a3.271 3.271 0 0 0-.843 2.292l-2.367 2.404a2.23 2.23 0 0 0 3.18 3.126l2.303-2.346c.056.003.112.008.168.008a3.27 3.27 0 0 0 2.198-.847l2.203-1.987a.82.82 0 0 0-1.097-1.219l-.004-.001zm-6.941 5.24a.589.589 0 1 1-.839-.826l1.766-1.794c.22.327.501.61.826.834l-1.753 1.785zM34.623 27.943c-.739.576-1.54 1.169-2.297 1.724a.82.82 0 1 0 .971 1.322c.766-.562 1.577-1.164 2.332-1.751a.82.82 0 1 0-1.008-1.295h.002zM36.076 21.114a.819.819 0 0 0 .24.58l1.99 1.99a.82.82 0 0 0 1.16 0l6.628-6.63a.819.819 0 0 0 0-1.16l-1.988-1.989a.818.818 0 0 0-1.16 0l-6.63 6.63a.817.817 0 0 0-.24.58zm7.45-5.469.828.83-5.468 5.469-.83-.83 5.47-5.469z" fill="#413B38"/>
</svg>
