<svg width="86" height="86" viewBox="0 0 86 86" fill="none" xmlns="http://www.w3.org/2000/svg">
<g clip-path="url(#clip0_2_213)">
<path d="M62.7956 1.53426C58.8204 1.52183 55.0896 2.56307 51.8665 4.39444C46.3719 7.51648 39.6286 7.51648 34.1338 4.39444C30.9106 2.56307 27.1799 1.52183 23.2047 1.53426C11.0281 1.57256 1.19658 11.8353 1.26007 24.0115C1.36976 45.0707 8.96314 71.4003 19.2269 81.6642C20.9665 83.4039 23.3732 84.4767 26.0303 84.4661C31.3244 84.4451 35.534 80.0299 35.5585 74.7359C35.5983 66.1357 39.3669 64.1975 43.0001 64.1975C46.6334 64.1975 50.402 66.1357 50.4416 74.7357C50.4661 80.0297 54.6758 84.4451 59.97 84.466C62.6271 84.4765 65.0336 83.4037 66.7732 81.6641C77.037 71.4003 84.6305 45.0705 84.74 24.0115C84.8035 11.8353 74.972 1.57256 62.7956 1.53426Z" fill="#F7F7F7"/>
<path opacity="0.05" d="M53.8128 8.81101L53.6979 8.63044C52.8861 7.35304 52.1882 6.2562 50.8065 4.95041C49.9735 5.35286 49.1164 5.68578 48.2438 5.95218C50.0417 7.43753 50.7366 8.53067 51.6335 9.94228L51.7493 10.1242C51.9824 10.4904 52.3778 10.6906 52.7819 10.6906C53.0067 10.6906 53.2339 10.6286 53.4375 10.4993C54.0074 10.1366 54.1752 9.38076 53.8128 8.81101ZM32.3027 8.63011L32.1876 8.81101C31.8248 9.38076 31.9927 10.1366 32.5625 10.4993C32.7661 10.6289 32.9933 10.6906 33.2179 10.6906C33.622 10.6906 34.0176 10.4904 34.2506 10.1242L34.3667 9.94195C35.2638 8.5305 35.9585 7.43719 37.7563 5.95218C36.8837 5.68578 36.0267 5.35286 35.1936 4.95041C33.8124 6.2562 33.1144 7.35287 32.3027 8.63011Z" fill="#413B38"/>
<path opacity="0.05" d="M55.8472 64.6135C51.4213 59.3689 41.8322 56.7027 28.2796 59.0712C8.89678 62.4585 9.92039 17.1508 16.0098 2.80058C7.38137 5.90582 1.20968 14.3565 1.26007 24.0115C1.36976 45.0707 8.96313 71.4003 19.2269 81.6642C20.9665 83.4039 23.3732 84.4767 26.0303 84.4661C31.3243 84.4451 35.534 80.0299 35.5585 74.7359C35.5983 66.1357 39.3669 64.1975 43 64.1975C46.6334 64.1975 50.4019 66.1357 50.4416 74.7357C50.4661 80.0297 54.6757 84.4451 59.97 84.466C62.6271 84.4764 65.0336 83.4037 66.7732 81.6641C71.6426 76.7947 75.9101 68.3082 79.0633 58.485C66.9995 77.2243 59.9125 69.4309 55.8472 64.6135Z" fill="#413B38"/>
<path d="M26.0872 38.4327C29.5335 38.4327 32.3273 36.2076 32.3273 33.4628C32.3273 30.718 29.5335 28.493 26.0872 28.493C22.6409 28.493 19.8472 30.718 19.8472 33.4628C19.8472 36.2076 22.6409 38.4327 26.0872 38.4327Z" fill="#F28B74"/>
<path d="M59.9129 38.4327C63.3592 38.4327 66.1529 36.2076 66.1529 33.4628C66.1529 30.718 63.3592 28.493 59.9129 28.493C56.4666 28.493 53.6729 30.718 53.6729 33.4628C53.6729 36.2076 56.4666 38.4327 59.9129 38.4327Z" fill="#F28B74"/>
<path d="M43.0001 34.1659C40.5029 34.1659 38.4785 32.1416 38.4785 29.6444V26.3572C38.4785 25.6756 39.0311 25.123 39.7128 25.123H46.2872C46.9688 25.123 47.5215 25.6756 47.5215 26.3572V29.6444C47.5215 32.1416 45.4973 34.1659 43.0001 34.1659Z" fill="#413B38"/>
<path d="M77.8853 15.0875C77.4397 16.1106 75.9886 16.1106 75.543 15.0875C74.6682 13.0793 73.0656 11.4765 71.0574 10.6017C70.0343 10.1561 70.0343 8.70503 71.0574 8.25941C73.0656 7.38463 74.6682 5.78203 75.543 3.77379C75.9886 2.75069 77.4397 2.75069 77.8853 3.77379C78.7601 5.78203 80.3627 7.38463 82.3711 8.25941C83.3942 8.70503 83.3942 10.1561 82.3711 10.6017C80.3629 11.4765 78.7601 13.0793 77.8853 15.0875Z" fill="#FE6E31"/>
<path d="M68.6562 53.7914C68.3255 54.5506 67.2486 54.5506 66.9179 53.7914C66.2687 52.3012 65.0795 51.1118 63.5891 50.4626C62.8298 50.1319 62.8298 49.055 63.5891 48.7243C65.0793 48.0751 66.2687 46.8858 66.9179 45.3955C67.2486 44.6362 68.3255 44.6362 68.6562 45.3955C69.3054 46.8857 70.4946 48.0751 71.985 48.7243C72.7442 49.055 72.7442 50.1319 71.985 50.4626C70.4948 51.1118 69.3054 52.3012 68.6562 53.7914Z" fill="#FFEF63"/>
<path d="M12.7369 67.9996C12.1692 69.303 10.3204 69.303 9.75262 67.9996C8.63814 65.4409 6.59631 63.399 4.03764 62.2846C2.7342 61.7168 2.7342 59.868 4.03764 59.3003C6.59631 58.1858 8.63814 56.144 9.75262 53.5853C10.3204 52.2819 12.1692 52.2819 12.7369 53.5853C13.8514 56.144 15.8932 58.1858 18.4519 59.3003C19.7553 59.868 19.7553 61.7168 18.4519 62.2846C15.8932 63.3992 13.8514 65.441 12.7369 67.9996Z" fill="#FE6E31"/>
<path d="M84.0437 35.298C83.355 35.2117 82.7236 35.7003 82.6368 36.391C80.2624 55.2909 73.5293 73.1267 65.8823 80.7733C64.3125 82.3431 62.228 83.2062 60.0086 83.2062H59.9749C55.4345 83.1884 51.7231 79.3859 51.7014 74.7299C51.6565 64.9835 46.9448 62.9377 43.0001 62.9377C39.0555 62.9377 34.3438 64.9835 34.2988 74.7298C34.2773 79.3857 30.5657 83.188 26.0253 83.2062H25.9915C23.7725 83.2062 21.6877 82.343 20.1177 80.7733C19.6514 80.307 19.1794 79.7932 18.7149 79.2463C18.2644 78.716 17.4696 78.6514 16.9392 79.1015C16.4089 79.5518 16.3439 80.3468 16.7942 80.8771C17.3028 81.4759 17.8215 82.0406 18.336 82.555C20.382 84.6008 23.0988 85.7257 25.991 85.7257H26.0352C31.9529 85.7022 36.7903 80.7747 36.8181 74.7415C36.861 65.4572 41.4816 65.4572 42.9999 65.4572C44.5182 65.4572 49.1389 65.4572 49.1817 74.7415C49.2097 80.7748 54.0471 85.7024 59.9648 85.7257H60.0088C62.9009 85.7257 65.6181 84.6008 67.6638 82.555C71.7564 78.4624 75.598 71.7665 78.7735 63.1908C81.7363 55.1896 83.996 45.7835 85.1365 36.7048C85.2233 36.0148 84.734 35.3849 84.0437 35.298ZM27.1299 28.8546C27.8256 28.8546 28.3896 28.2907 28.3896 27.5948V24.9162C28.3896 24.2203 27.8256 23.6564 27.1299 23.6564C26.4341 23.6564 25.8701 24.2203 25.8701 24.9162V27.5948C25.8701 28.2905 26.434 28.8546 27.1299 28.8546ZM65.7631 54.2947C66.114 55.1002 66.9085 55.6208 67.7873 55.6208C68.6661 55.6208 69.4604 55.1001 69.8113 54.2945C70.3352 53.0922 71.2859 52.1415 72.4884 51.6177C73.294 51.2669 73.8145 50.4724 73.8145 49.5935C73.8145 48.7151 73.294 47.9204 72.4884 47.5695C71.2861 47.0458 70.3354 46.0953 69.8115 44.8928C69.4606 44.0872 68.6661 43.5666 67.7873 43.5666C66.9088 43.5666 66.1141 44.0872 65.7633 44.8929C65.2395 46.0953 64.289 47.0458 63.0863 47.5695C62.2808 47.9204 61.7602 48.7149 61.7602 49.5935C61.7602 50.4724 62.2808 51.2669 63.0863 51.6177C64.2887 52.1413 65.2392 53.092 65.7631 54.2947ZM67.7871 46.4863C68.4991 47.8052 69.5755 48.8817 70.8944 49.5935C69.5753 50.3056 68.4991 51.3817 67.7871 52.7008C67.0751 51.3817 65.9989 50.3054 64.6799 49.5935C65.9989 48.8815 67.0753 47.8053 67.7871 46.4863ZM82.6903 11.842C82.7515 11.8134 82.812 11.7839 82.8741 11.7568C83.8144 11.3473 84.3983 10.4559 84.3983 9.43046C84.3981 8.40501 83.8139 7.51377 82.8741 7.10443C81.1521 6.35428 79.7905 4.99272 79.0404 3.27053C78.6309 2.33041 77.7396 1.74655 76.7142 1.74655C75.6887 1.74655 74.7975 2.33058 74.388 3.27053C74.3619 3.33016 74.3335 3.38828 74.3062 3.44707C70.8038 1.38256 66.854 0.287401 62.7994 0.274468C58.7386 0.264725 54.7487 1.30765 51.244 3.29925C46.1589 6.18832 39.8413 6.18832 34.7562 3.29925C31.2721 1.31957 27.3035 0.2743 23.2738 0.2743C23.2494 0.2743 23.2251 0.274468 23.2007 0.274468C17.0853 0.293616 11.3028 2.73908 6.91864 7.16002C2.42429 11.6922 -0.0325953 17.6789 0.000326618 24.0182C0.0544127 34.4115 1.95179 46.4542 5.21745 57.2049C4.69288 57.5694 4.13052 57.8858 3.53456 58.1454C2.46477 58.6111 1.80028 59.6255 1.80012 60.7924C1.80012 61.9591 2.4646 62.9736 3.5344 63.4397C5.8087 64.4304 7.60681 66.2285 8.59749 68.5028C8.89681 69.1903 9.42339 69.709 10.0706 69.9929C11.0843 72.1404 12.1497 74.1311 13.243 75.9131C13.4807 76.3006 13.8944 76.5141 14.318 76.5141C14.5426 76.5141 14.77 76.4541 14.9756 76.328C15.5687 75.9642 15.7545 75.1885 15.3905 74.5954C14.4964 73.1383 13.6199 71.5306 12.7752 69.8049C13.2581 69.5043 13.6493 69.0591 13.8915 68.503C14.8822 66.2287 16.6803 64.4306 18.9548 63.4399C20.0246 62.974 20.6891 61.9594 20.6891 60.7925C20.6891 59.6257 20.0244 58.6115 18.9548 58.1455C16.6805 57.155 14.8824 55.3569 13.8917 53.0824C13.4258 52.0126 12.4114 51.3481 11.2447 51.3481C10.0778 51.3481 9.06344 52.0126 8.59749 53.0824C8.25063 53.8786 7.80283 54.6148 7.27238 55.2801C4.29261 45.0633 2.57059 33.7828 2.5197 24.0051C2.49013 18.3399 4.68767 12.9877 8.70751 8.93428C12.6172 4.99171 17.7671 2.81114 23.2085 2.794C23.2303 2.794 23.2518 2.79384 23.2736 2.79384C26.8675 2.79384 30.4063 3.72556 33.5113 5.48974C39.3642 8.81536 46.6359 8.81536 52.4885 5.48974C55.6124 3.71481 59.1711 2.78208 62.7914 2.794C66.3338 2.80509 69.7883 3.74521 72.8648 5.52098C72.2092 6.18429 71.4283 6.72347 70.5539 7.10443C69.6138 7.5136 69.0299 8.40501 69.0298 9.43046C69.0298 10.4557 69.6138 11.3472 70.5537 11.7568C72.2759 12.507 73.6375 13.8684 74.3876 15.5906C74.7971 16.5307 75.6884 17.1145 76.7138 17.1145C77.7391 17.1145 78.6305 16.5305 79.04 15.5906C79.4198 14.7188 79.9566 13.9399 80.6171 13.2855C82.5121 16.5513 83.4998 20.2285 83.48 24.0051C83.469 26.1328 83.3792 28.3586 83.2129 30.6204C83.1618 31.3143 83.683 31.9182 84.3769 31.9691C84.4085 31.9714 84.4396 31.9724 84.4706 31.9724C85.1245 31.9724 85.6772 31.4673 85.7257 30.805C85.8962 28.4862 85.9884 26.2028 85.9997 24.0182C86.0222 19.7209 84.8792 15.54 82.6903 11.842ZM10.9076 54.0886C10.9872 53.9058 11.1348 53.8677 11.2449 53.8677C11.3547 53.8677 11.5025 53.906 11.582 54.0886C12.8278 56.9484 15.0888 59.2096 17.9488 60.4553C18.1312 60.5349 18.1697 60.6825 18.1697 60.7924C18.1697 60.9024 18.1312 61.0502 17.9488 61.1298C15.089 62.3755 12.8278 64.6367 11.582 67.4965C11.5023 67.6793 11.3547 67.7174 11.2449 67.7174C11.2326 67.7174 11.2198 67.7167 11.2069 67.7156C11.1867 67.7117 11.1666 67.7083 11.1461 67.7055C11.0576 67.6842 10.9648 67.6281 10.9076 67.4964C9.66174 64.6364 7.40071 62.3753 4.54087 61.1297C4.35828 61.05 4.31982 60.9022 4.31982 60.7922C4.31982 60.6824 4.35829 60.5347 4.5407 60.4551C7.40071 59.2096 9.66174 56.9486 10.9076 54.0886ZM81.8678 9.44692C79.5601 10.452 77.7354 12.2767 76.7303 14.5844L77.8852 15.0875L76.7298 14.5927C76.7226 14.5958 76.7053 14.5958 76.6979 14.5844C75.6927 12.2767 73.8679 10.452 71.552 9.44642C71.5486 9.43936 71.5486 9.4219 71.5602 9.4145C73.2874 8.66217 74.7439 7.45061 75.7892 5.91772C75.791 5.91504 75.793 5.91269 75.7949 5.91C75.7955 5.90899 75.7959 5.90815 75.7966 5.90714C76.1448 5.395 76.4471 4.84726 76.6984 4.2686C76.7053 4.26508 76.7227 4.26558 76.7303 4.27683C77.7356 6.58473 79.5602 8.40938 81.8762 9.41501C81.8796 9.4219 81.8794 9.4392 81.8678 9.44692ZM60.1301 27.5948V24.9162C60.1301 24.2203 59.5662 23.6564 58.8703 23.6564C58.1744 23.6564 57.6105 24.2203 57.6105 24.9162V27.5948C57.6105 28.2907 58.1744 28.8546 58.8703 28.8546C59.5662 28.8546 60.1301 28.2905 60.1301 27.5948ZM43.0001 35.4257C46.1878 35.4257 48.7814 32.8321 48.7814 29.6444V26.3572C48.7814 24.9819 47.6626 23.8632 46.2872 23.8632H39.7129C38.3376 23.8632 37.2189 24.9819 37.2189 26.3572V29.6444C37.2188 32.8321 39.8122 35.4257 43.0001 35.4257ZM39.7383 26.3827H46.2617V29.6444C46.2617 31.443 44.7985 32.9062 42.9999 32.9062C41.2013 32.9062 39.7381 31.443 39.7381 29.6444L39.7383 26.3827Z" fill="#413B38"/>
</g>
<defs>
<clipPath id="clip0_2_213">
<rect width="86" height="86" fill="white"/>
</clipPath>
</defs>
</svg>
