<svg width="60" height="60" viewBox="0 0 60 60" fill="none" xmlns="http://www.w3.org/2000/svg">
    <g clip-path="url(#a)">
        <path d="m52.204 11.927-4.13-4.13-6.88 6.88 4.13 4.13 6.88-6.88z" fill="#FBFEFF"/>
        <path opacity=".15" d="m52.203 11.926-4.13-4.13L46.08 9.79l4.13 4.13 1.994-1.994z" fill="#2C0D12"/>
        <path d="m46.685 1.214 12.1 12.1a1.147 1.147 0 0 1 0 1.622l-.975.975a1.147 1.147 0 0 1-1.622 0l-12.1-12.1a1.147 1.147 0 0 1 0-1.622l.975-.975a1.147 1.147 0 0 1 1.622 0zM32.228 14.05 45.95 27.77 23.792 49.93a3.285 3.285 0 0 1-4.646 0l-9.076-9.076a3.285 3.285 0 0 1 0-4.645L32.228 14.05z" fill="#FBFEFF"/>
        <path d="m25.032 21.245 13.722 13.722-14.962 14.962a3.285 3.285 0 0 1-4.646 0l-9.076-9.076a3.285 3.285 0 0 1 0-4.645l14.962-14.963z" fill="#CCECEA"/>
        <path d="m34.544 8.026 17.43 17.43c.66.66.66 1.73 0 2.39l-1.78 1.78c-.66.66-1.73.66-2.39 0l-17.43-17.43a1.69 1.69 0 0 1 0-2.39l1.78-1.78a1.69 1.69 0 0 1 2.39 0z" fill="#FBFEFF"/>
        <path opacity=".15" d="m37.696 11.178-3.152-3.152a1.69 1.69 0 0 0-2.39 0l-1.78 1.78a1.69 1.69 0 0 0 0 2.39l6.675 6.675c-1.776-3.295-.635-6.778.647-7.693z" fill="#2C0D12"/>
        <path d="m7.926 47.24 4.834 4.834a2.416 2.416 0 0 0 3.417 0l2.556-2.557-8.25-8.251-2.557 2.557a2.416 2.416 0 0 0 0 3.417z" fill="#FBFEFF"/>
        <path opacity=".15" d="M24.443 21.835 10.07 36.208a3.285 3.285 0 0 0 0 4.645l9.076 9.076a3.285 3.285 0 0 0 4.646 0l6.173-6.173c-5.58-2.934-6.863-11.707-5.522-21.921z" fill="#2C0D12"/>
        <g opacity=".1" fill="#2C0D12">
            <path opacity=".1" d="M33.788 37.136a.864.864 0 1 0 0-1.728.864.864 0 0 0 0 1.727zM28.242 31.296a.864.864 0 1 0 0-1.727.864.864 0 0 0 0 1.727zM21.294 48.25a.864.864 0 1 0 0-1.728.864.864 0 0 0 0 1.728zM14.616 38.739a.864.864 0 1 0 0-1.728.864.864 0 0 0 0 1.728z"/>
        </g>
        <path opacity=".15" d="M48.258 7.981c-.434-1.834.14-3.679.8-4.394l-2.372-2.372a1.147 1.147 0 0 0-1.623 0l-.974.974a1.147 1.147 0 0 0 0 1.622l4.17 4.17z" fill="#2C0D12"/>
        <path opacity=".1" d="m18.733 49.518-8.251-8.25-2.261 2.26 8.25 8.251 2.262-2.261z" fill="#2C0D12"/>
        <path d="M25.567 32.751a.879.879 0 0 0 .621-1.5l-2.363-2.364a.879.879 0 0 0-1.243 1.243l2.363 2.364a.877.877 0 0 0 .622.257zm33.84-20.055-12.1-12.1a2.028 2.028 0 0 0-2.865 0l-.975.975c-.79.79-.79 2.075 0 2.865L46.831 7.8l-5.637 5.637-2.351-2.351a.879.879 0 1 0-1.243 1.243L51.352 26.08a.806.806 0 0 1 .238.574c0 .217-.084.42-.238.574l-1.779 1.78a.806.806 0 0 1-.574.237.806.806 0 0 1-.574-.238l-1.853-1.853-.001-.001-13.72-13.72-.001-.001v-.001l-1.854-1.853a.813.813 0 0 1 0-1.148l1.779-1.78a.807.807 0 0 1 .574-.237c.217 0 .42.084.574.237l.767.768a.879.879 0 0 0 1.244-1.243l-.768-.767a2.553 2.553 0 0 0-1.817-.753c-.687 0-1.332.267-1.817.753l-1.78 1.779a2.572 2.572 0 0 0 0 3.633l1.233 1.233L9.45 35.589a4.137 4.137 0 0 0-1.22 2.945c0 1.013.36 1.97 1.02 2.727l-1.944 1.944a3.299 3.299 0 0 0 0 4.66L9.1 49.66.258 58.502A.879.879 0 1 0 1.5 59.745l8.842-8.842 1.795 1.795c.623.623 1.45.965 2.33.965.88 0 1.708-.342 2.33-.965l1.944-1.943a4.152 4.152 0 0 0 2.727 1.017 4.151 4.151 0 0 0 2.944-1.218l3.986-3.986a.879.879 0 0 0-1.243-1.242l-3.985 3.985a2.41 2.41 0 0 1-3.403 0l-.412-.412h-.001v-.001l-8.25-8.25h-.001l-.412-.413a2.39 2.39 0 0 1-.705-1.701c0-.643.25-1.247.705-1.702l14.34-14.34 7.876 7.875-12.39 12.39A.879.879 0 0 0 21.763 44l12.39-12.39 3.36 3.36-7.446 7.446a.879.879 0 1 0 1.243 1.243l8.066-8.066.001-.001v-.001l6.574-6.573 1.232 1.232c.501.5 1.16.752 1.817.752.658 0 1.316-.251 1.817-.752l1.78-1.78c.485-.485.752-1.13.752-1.816 0-.686-.267-1.332-.753-1.817l-6.028-6.028 5.636-5.637 3.364 3.363c.383.383.891.594 1.432.594.542 0 1.05-.21 1.433-.594l.975-.974c.382-.383.593-.892.593-1.433 0-.54-.21-1.05-.593-1.432zM10.483 42.512l7.008 7.008-1.936 1.935c-.29.29-.676.45-1.087.45-.41 0-.796-.16-1.087-.45l-2.416-2.416-2.417-2.417c-.6-.6-.6-1.575 0-2.174l1.935-1.936zm28.271-8.785-3.36-3.36 2.3-2.3a.879.879 0 1 0-1.243-1.242l-2.3 2.3-2.917-2.918-2.365-2.364-2.593-2.594 5.952-5.953 12.479 12.479-5.953 5.952zm6.57-16.161-2.887-2.887 5.637-5.637 2.887 2.888-5.637 5.636zm12.84-3.248-.975.975a.263.263 0 0 1-.19.078.263.263 0 0 1-.19-.078l-8.114-8.115-3.985-3.985a.268.268 0 0 1 0-.379l.975-.975a.267.267 0 0 1 .38 0l12.099 12.1a.263.263 0 0 1 .078.19c0 .05-.013.124-.078.189zm-37.02 23.22a.879.879 0 0 0 0-1.242l-2.364-2.364a.879.879 0 0 0-1.243 1.243L19.9 37.54a.877.877 0 0 0 1.242 0z" fill="#2C0D12"/>
    </g>
    <defs>
        <clipPath id="a">
            <path fill="#fff" d="M0 0h60v60H0z"/>
        </clipPath>
    </defs>
</svg>
